<svg width="23" height="20" viewBox="0 0 23 20" fill="none" xmlns="http://www.w3.org/2000/svg">
<path d="M2 15.25C2 14.0074 3.00736 13 4.25 13H8.75C9.99264 13 11 14.0074 11 15.25C11 17.3211 9.32107 19 7.25 19H5.75C3.67893 19 2 17.3211 2 15.25Z" fill="#E8EAED"/>
<path d="M0 4C0 2.34315 1.34315 1 3 1V1C4.65685 1 6 2.34315 6 4V19H3C1.34315 19 0 17.6569 0 16V4Z" fill="#E8EAED"/>
<path d="M7 3.59085C7 2.15993 8.15999 0.999939 9.59091 0.999939V0.999939C11.4737 0.999939 13 2.52624 13 4.40903V15.9999C13 17.6568 11.6569 18.9999 10 18.9999H7V3.59085Z" fill="#E8EAED"/>
<path d="M7.39145 5.5661C6.62297 4.13641 7.1345 2.31088 8.53397 1.48867V1.48867C9.93345 0.666453 11.6909 1.15891 12.4594 2.5886L18.8263 14.4337C19.5948 15.8634 19.0833 17.689 17.6838 18.5112V18.5112C16.2843 19.3334 14.5268 18.8409 13.7584 17.4112L7.39145 5.5661Z" fill="#E8EAED"/>
<circle cx="21" cy="17" r="2" fill="#E8EAED"/>
</svg>
