<svg width="303" height="36" viewBox="0 0 303 36" fill="none" xmlns="http://www.w3.org/2000/svg">
<path d="M0.889438 12V1.952H2.13744V12H0.889438ZM10.8138 12V7.504C10.8138 6.77333 10.6378 6.21867 10.2858 5.84C9.93915 5.456 9.46448 5.264 8.86181 5.264C8.40315 5.264 8.00581 5.38933 7.66981 5.64C7.33381 5.89067 7.07515 6.25067 6.89381 6.72C6.71248 7.184 6.62181 7.73867 6.62181 8.384H6.14181C6.14181 7.49333 6.25915 6.73333 6.49381 6.104C6.72848 5.47467 7.06981 4.99467 7.51781 4.664C7.97115 4.328 8.52048 4.16 9.16581 4.16C9.76848 4.16 10.2831 4.296 10.7098 4.568C11.1418 4.83467 11.4725 5.21867 11.7018 5.72C11.9311 6.22133 12.0458 6.816 12.0458 7.504V12H10.8138ZM5.37381 12V4.352H6.44581L6.62181 6.112V12H5.37381ZM17.3821 12.192C16.9661 12.192 16.5927 12.112 16.2621 11.952C15.9314 11.792 15.6701 11.552 15.4781 11.232C15.2861 10.912 15.1901 10.512 15.1901 10.032V2.224H16.4221V10C16.4221 10.7893 16.7901 11.184 17.5261 11.184C17.7447 11.184 17.9554 11.16 18.1581 11.112C18.3661 11.064 18.5981 10.992 18.8541 10.896L19.0301 11.792C18.7581 11.9093 18.4861 12.0053 18.2141 12.08C17.9474 12.1547 17.6701 12.192 17.3821 12.192ZM13.9581 5.216V4.352H18.8381V5.216H13.9581ZM23.7017 12.192C23.0404 12.192 22.4484 12.024 21.9257 11.688C21.4084 11.3467 20.9977 10.8747 20.6937 10.272C20.395 9.66933 20.2457 8.976 20.2457 8.192C20.2457 7.35467 20.395 6.63467 20.6937 6.032C20.9924 5.42933 21.4004 4.968 21.9177 4.648C22.4404 4.32267 23.035 4.16 23.7017 4.16C24.283 4.16 24.779 4.27733 25.1897 4.512C25.6004 4.74667 25.931 5.064 26.1817 5.464C26.4324 5.864 26.6057 6.31733 26.7017 6.824C26.803 7.32533 26.8324 7.84533 26.7897 8.384H21.2537V7.616H25.9657L25.5977 7.856C25.6137 7.54133 25.595 7.22667 25.5417 6.912C25.4937 6.59733 25.4004 6.30933 25.2617 6.048C25.123 5.78133 24.9284 5.568 24.6777 5.408C24.427 5.248 24.107 5.168 23.7177 5.168C23.227 5.168 22.8164 5.29333 22.4857 5.544C22.155 5.79467 21.907 6.12533 21.7417 6.536C21.5764 6.94133 21.4937 7.38133 21.4937 7.856V8.368C21.4937 8.90133 21.5737 9.37867 21.7337 9.8C21.899 10.2213 22.1444 10.5547 22.4697 10.8C22.795 11.0453 23.2057 11.168 23.7017 11.168C24.1977 11.168 24.6057 11.048 24.9257 10.808C25.2457 10.568 25.4404 10.2133 25.5097 9.744H26.8057C26.7257 10.2507 26.5444 10.688 26.2617 11.056C25.979 11.4187 25.619 11.6987 25.1817 11.896C24.7444 12.0933 24.251 12.192 23.7017 12.192ZM29.2644 12V4.336H30.5124V12H29.2644ZM30.1284 8.544C30.1284 7.57333 30.2218 6.768 30.4084 6.128C30.5951 5.48267 30.8671 5.00267 31.2244 4.688C31.5871 4.368 32.0271 4.208 32.5444 4.208C32.7151 4.208 32.8698 4.22133 33.0084 4.248C33.1524 4.26933 33.2964 4.304 33.4404 4.352L33.3604 5.584C33.2111 5.536 33.0484 5.496 32.8724 5.464C32.6964 5.42667 32.5391 5.408 32.4004 5.408C31.9471 5.408 31.5818 5.53867 31.3044 5.8C31.0271 6.056 30.8244 6.41867 30.6964 6.888C30.5738 7.35733 30.5124 7.90933 30.5124 8.544H30.1284ZM37.7017 12.192C37.0404 12.192 36.4484 12.024 35.9257 11.688C35.4084 11.3467 34.9977 10.8747 34.6937 10.272C34.395 9.66933 34.2457 8.976 34.2457 8.192C34.2457 7.35467 34.395 6.63467 34.6937 6.032C34.9924 5.42933 35.4004 4.968 35.9177 4.648C36.4404 4.32267 37.035 4.16 37.7017 4.16C38.283 4.16 38.779 4.27733 39.1897 4.512C39.6004 4.74667 39.931 5.064 40.1817 5.464C40.4324 5.864 40.6057 6.31733 40.7017 6.824C40.803 7.32533 40.8324 7.84533 40.7897 8.384H35.2537V7.616H39.9657L39.5977 7.856C39.6137 7.54133 39.595 7.22667 39.5417 6.912C39.4937 6.59733 39.4004 6.30933 39.2617 6.048C39.123 5.78133 38.9284 5.568 38.6777 5.408C38.427 5.248 38.107 5.168 37.7177 5.168C37.227 5.168 36.8164 5.29333 36.4857 5.544C36.155 5.79467 35.907 6.12533 35.7417 6.536C35.5764 6.94133 35.4937 7.38133 35.4937 7.856V8.368C35.4937 8.90133 35.5737 9.37867 35.7337 9.8C35.899 10.2213 36.1444 10.5547 36.4697 10.8C36.795 11.0453 37.2057 11.168 37.7017 11.168C38.1977 11.168 38.6057 11.048 38.9257 10.808C39.2457 10.568 39.4404 10.2133 39.5097 9.744H40.8057C40.7257 10.2507 40.5444 10.688 40.2617 11.056C39.979 11.4187 39.619 11.6987 39.1817 11.896C38.7444 12.0933 38.251 12.192 37.7017 12.192ZM46.0164 12.192C45.2751 12.192 44.6564 12.088 44.1604 11.88C43.6644 11.6667 43.2884 11.376 43.0324 11.008C42.7764 10.6347 42.6404 10.208 42.6244 9.728H43.8244C43.8511 10.2133 44.0458 10.5787 44.4084 10.824C44.7764 11.064 45.2751 11.184 45.9044 11.184C46.2351 11.184 46.5391 11.1307 46.8164 11.024C47.0938 10.9173 47.3151 10.7707 47.4804 10.584C47.6458 10.3973 47.7284 10.1867 47.7284 9.952C47.7284 9.65333 47.6191 9.41867 47.4004 9.248C47.1818 9.07733 46.8324 8.928 46.3524 8.8L44.8644 8.32C44.2191 8.11733 43.7231 7.84 43.3764 7.488C43.0351 7.13067 42.8644 6.704 42.8644 6.208C42.8644 5.58933 43.1364 5.09333 43.6804 4.72C44.2244 4.34667 44.9391 4.16 45.8244 4.16C46.7631 4.16 47.4911 4.352 48.0084 4.736C48.5258 5.12 48.7951 5.6 48.8164 6.176H47.5844C47.5364 5.84 47.3658 5.58667 47.0724 5.416C46.7791 5.24 46.3631 5.152 45.8244 5.152C45.3071 5.152 44.9018 5.26933 44.6084 5.504C44.3204 5.73333 44.1764 5.98933 44.1764 6.272C44.1764 6.8 44.6298 7.18933 45.5364 7.44L47.0564 7.952C47.7124 8.14933 48.2138 8.408 48.5604 8.728C48.9124 9.048 49.0884 9.456 49.0884 9.952C49.0884 10.336 48.9631 10.6987 48.7124 11.04C48.4618 11.3813 48.1071 11.6587 47.6484 11.872C47.1898 12.0853 46.6458 12.192 46.0164 12.192ZM54.4227 12.192C53.6814 12.192 53.0627 12.088 52.5667 11.88C52.0707 11.6667 51.6947 11.376 51.4387 11.008C51.1827 10.6347 51.0467 10.208 51.0307 9.728H52.2307C52.2574 10.2133 52.452 10.5787 52.8147 10.824C53.1827 11.064 53.6814 11.184 54.3107 11.184C54.6414 11.184 54.9454 11.1307 55.2227 11.024C55.5 10.9173 55.7214 10.7707 55.8867 10.584C56.052 10.3973 56.1347 10.1867 56.1347 9.952C56.1347 9.65333 56.0254 9.41867 55.8067 9.248C55.588 9.07733 55.2387 8.928 54.7587 8.8L53.2707 8.32C52.6254 8.11733 52.1294 7.84 51.7827 7.488C51.4414 7.13067 51.2707 6.704 51.2707 6.208C51.2707 5.58933 51.5427 5.09333 52.0867 4.72C52.6307 4.34667 53.3454 4.16 54.2307 4.16C55.1694 4.16 55.8974 4.352 56.4147 4.736C56.932 5.12 57.2014 5.6 57.2227 6.176H55.9907C55.9427 5.84 55.772 5.58667 55.4787 5.416C55.1854 5.24 54.7694 5.152 54.2307 5.152C53.7134 5.152 53.308 5.26933 53.0147 5.504C52.7267 5.73333 52.5827 5.98933 52.5827 6.272C52.5827 6.8 53.036 7.18933 53.9427 7.44L55.4627 7.952C56.1187 8.14933 56.62 8.408 56.9667 8.728C57.3187 9.048 57.4947 9.456 57.4947 9.952C57.4947 10.336 57.3694 10.6987 57.1187 11.04C56.868 11.3813 56.5134 11.6587 56.0547 11.872C55.596 12.0853 55.052 12.192 54.4227 12.192ZM64.8129 12L64.6529 10.32V7.04C64.6529 6.352 64.5063 5.85867 64.2129 5.56C63.9196 5.256 63.4796 5.104 62.8929 5.104C62.5623 5.104 62.2609 5.152 61.9889 5.248C61.7223 5.344 61.5089 5.49333 61.3489 5.696C61.1943 5.89333 61.1169 6.14933 61.1169 6.464H59.7249C59.7249 5.90933 59.8609 5.464 60.1329 5.128C60.4049 4.78667 60.7783 4.54133 61.2529 4.392C61.7329 4.23733 62.2796 4.16 62.8929 4.16C63.4796 4.16 63.9996 4.25867 64.4529 4.456C64.9063 4.65333 65.2609 4.968 65.5169 5.4C65.7729 5.82667 65.9009 6.384 65.9009 7.072V12H64.8129ZM62.2049 12.192C61.5756 12.192 61.0556 12.08 60.6449 11.856C60.2343 11.632 59.9276 11.3413 59.7249 10.984C59.5223 10.6267 59.4209 10.2507 59.4209 9.856C59.4209 9.33867 59.5489 8.91733 59.8049 8.592C60.0663 8.26667 60.4209 8.02933 60.8689 7.88C61.3169 7.72533 61.8209 7.648 62.3809 7.648C62.7809 7.648 63.1809 7.688 63.5809 7.768C63.9863 7.848 64.3809 7.95733 64.7649 8.096V8.88C64.4449 8.752 64.0823 8.65067 63.6769 8.576C63.2769 8.50133 62.9089 8.464 62.5729 8.464C62.0609 8.464 61.6289 8.57067 61.2769 8.784C60.9249 8.992 60.7489 9.34933 60.7489 9.856C60.7489 10.2293 60.8823 10.5493 61.1489 10.816C61.4209 11.0827 61.8529 11.216 62.4449 11.216C62.8609 11.216 63.2343 11.12 63.5649 10.928C63.9009 10.7307 64.1649 10.4853 64.3569 10.192C64.5543 9.89867 64.6529 9.60533 64.6529 9.312H64.9569C64.9569 9.824 64.8449 10.2987 64.6209 10.736C64.4023 11.1733 64.0876 11.5253 63.6769 11.792C63.2663 12.0587 62.7756 12.192 62.2049 12.192ZM71.6254 12.192C71.0068 12.192 70.4388 12.0267 69.9214 11.696C69.4041 11.36 68.9908 10.8907 68.6814 10.288C68.3721 9.68 68.2174 8.96533 68.2174 8.144C68.2174 7.328 68.3694 6.62133 68.6734 6.024C68.9774 5.42667 69.3801 4.968 69.8814 4.648C70.3881 4.32267 70.9428 4.16 71.5454 4.16C72.1054 4.16 72.5961 4.296 73.0174 4.568C73.4441 4.84 73.7748 5.232 74.0094 5.744C74.2441 6.256 74.3614 6.87467 74.3614 7.6H73.8814C73.8814 7.09333 73.7801 6.66667 73.5774 6.32C73.3801 5.97333 73.1214 5.712 72.8014 5.536C72.4814 5.35467 72.1374 5.264 71.7694 5.264C71.3534 5.264 70.9721 5.38133 70.6254 5.616C70.2841 5.84533 70.0094 6.176 69.8014 6.608C69.5988 7.03467 69.4974 7.54667 69.4974 8.144C69.4974 8.752 69.5988 9.27467 69.8014 9.712C70.0094 10.1493 70.2841 10.4853 70.6254 10.72C70.9721 10.9547 71.3534 11.072 71.7694 11.072C72.1161 11.072 72.4494 10.9813 72.7694 10.8C73.0948 10.6187 73.3614 10.3547 73.5694 10.008C73.7774 9.656 73.8814 9.232 73.8814 8.736H74.3614C74.3614 9.47733 74.2388 10.1067 73.9934 10.624C73.7534 11.136 73.4254 11.5253 73.0094 11.792C72.5988 12.0587 72.1374 12.192 71.6254 12.192ZM74.0894 12L73.8814 10.208V1.088H75.1294V12H74.0894ZM81.1418 12.192C80.4538 12.192 79.8405 12.04 79.3018 11.736C78.7685 11.432 78.3471 10.9813 78.0378 10.384C77.7285 9.78667 77.5738 9.05067 77.5738 8.176C77.5738 7.296 77.7285 6.56 78.0378 5.968C78.3471 5.37067 78.7685 4.92 79.3018 4.616C79.8405 4.312 80.4538 4.16 81.1418 4.16C81.8245 4.16 82.4325 4.312 82.9658 4.616C83.5045 4.92 83.9258 5.37067 84.2298 5.968C84.5391 6.56 84.6938 7.296 84.6938 8.176C84.6938 9.05067 84.5391 9.78667 84.2298 10.384C83.9258 10.9813 83.5045 11.432 82.9658 11.736C82.4325 12.04 81.8245 12.192 81.1418 12.192ZM81.1098 11.104C81.6058 11.104 82.0271 10.9867 82.3738 10.752C82.7205 10.512 82.9818 10.1733 83.1578 9.736C83.3391 9.29867 83.4298 8.77867 83.4298 8.176C83.4298 7.264 83.2405 6.54667 82.8618 6.024C82.4831 5.496 81.9205 5.232 81.1738 5.232C80.6725 5.232 80.2485 5.352 79.9018 5.592C79.5605 5.82667 79.2991 6.16533 79.1178 6.608C78.9418 7.04533 78.8538 7.568 78.8538 8.176C78.8538 9.07733 79.0431 9.792 79.4218 10.32C79.8058 10.8427 80.3685 11.104 81.1098 11.104ZM93.5767 12.192C92.9154 12.192 92.3234 12.024 91.8007 11.688C91.2834 11.3467 90.8727 10.8747 90.5687 10.272C90.27 9.66933 90.1207 8.976 90.1207 8.192C90.1207 7.35467 90.27 6.63467 90.5687 6.032C90.8674 5.42933 91.2754 4.968 91.7927 4.648C92.3154 4.32267 92.91 4.16 93.5767 4.16C94.158 4.16 94.654 4.27733 95.0647 4.512C95.4754 4.74667 95.806 5.064 96.0567 5.464C96.3074 5.864 96.4807 6.31733 96.5767 6.824C96.678 7.32533 96.7074 7.84533 96.6647 8.384H91.1287V7.616H95.8407L95.4727 7.856C95.4887 7.54133 95.47 7.22667 95.4167 6.912C95.3687 6.59733 95.2754 6.30933 95.1367 6.048C94.998 5.78133 94.8034 5.568 94.5527 5.408C94.302 5.248 93.982 5.168 93.5927 5.168C93.102 5.168 92.6914 5.29333 92.3607 5.544C92.03 5.79467 91.782 6.12533 91.6167 6.536C91.4514 6.94133 91.3687 7.38133 91.3687 7.856V8.368C91.3687 8.90133 91.4487 9.37867 91.6087 9.8C91.774 10.2213 92.0194 10.5547 92.3447 10.8C92.67 11.0453 93.0807 11.168 93.5767 11.168C94.0727 11.168 94.4807 11.048 94.8007 10.808C95.1207 10.568 95.3154 10.2133 95.3847 9.744H96.6807C96.6007 10.2507 96.4194 10.688 96.1367 11.056C95.854 11.4187 95.494 11.6987 95.0567 11.896C94.6194 12.0933 94.126 12.192 93.5767 12.192ZM109.891 12V7.504C109.891 6.77333 109.715 6.21867 109.363 5.84C109.017 5.456 108.547 5.264 107.955 5.264C107.262 5.264 106.731 5.53333 106.363 6.072C105.995 6.60533 105.811 7.344 105.811 8.288H105.235C105.235 7.6 105.302 6.99733 105.435 6.48C105.574 5.96267 105.774 5.53333 106.035 5.192C106.297 4.84533 106.614 4.58667 106.987 4.416C107.361 4.24533 107.785 4.16 108.259 4.16C108.862 4.16 109.377 4.296 109.803 4.568C110.235 4.83467 110.566 5.21867 110.795 5.72C111.025 6.22133 111.139 6.816 111.139 7.504V12H109.891ZM99.1394 12V4.352H100.211L100.355 5.888C100.595 5.33333 100.931 4.90667 101.363 4.608C101.801 4.30933 102.323 4.16 102.931 4.16C103.534 4.16 104.049 4.296 104.475 4.568C104.907 4.83467 105.238 5.21867 105.467 5.72C105.697 6.22133 105.811 6.816 105.811 7.504V12H104.579V7.504C104.579 6.77333 104.403 6.21867 104.051 5.84C103.705 5.456 103.23 5.264 102.627 5.264C102.169 5.264 101.771 5.38933 101.435 5.64C101.099 5.89067 100.841 6.25067 100.659 6.72C100.478 7.184 100.387 7.73867 100.387 8.384V12H99.1394ZM120.257 12.192C119.841 12.192 119.468 12.112 119.137 11.952C118.806 11.792 118.545 11.552 118.353 11.232C118.161 10.912 118.065 10.512 118.065 10.032V2.224H119.297V10C119.297 10.7893 119.665 11.184 120.401 11.184C120.62 11.184 120.83 11.16 121.033 11.112C121.241 11.064 121.473 10.992 121.729 10.896L121.905 11.792C121.633 11.9093 121.361 12.0053 121.089 12.08C120.822 12.1547 120.545 12.192 120.257 12.192ZM116.833 5.216V4.352H121.713V5.216H116.833ZM123.921 12V4.336H125.169V12H123.921ZM124.785 8.544C124.785 7.57333 124.878 6.768 125.065 6.128C125.251 5.48267 125.523 5.00267 125.881 4.688C126.243 4.368 126.683 4.208 127.201 4.208C127.371 4.208 127.526 4.22133 127.665 4.248C127.809 4.26933 127.953 4.304 128.097 4.352L128.017 5.584C127.867 5.536 127.705 5.496 127.529 5.464C127.353 5.42667 127.195 5.408 127.057 5.408C126.603 5.408 126.238 5.53867 125.961 5.8C125.683 6.056 125.481 6.41867 125.353 6.888C125.23 7.35733 125.169 7.90933 125.169 8.544H124.785ZM134.438 12L134.278 10.32V7.04C134.278 6.352 134.131 5.85867 133.838 5.56C133.545 5.256 133.105 5.104 132.518 5.104C132.187 5.104 131.886 5.152 131.614 5.248C131.347 5.344 131.134 5.49333 130.974 5.696C130.819 5.89333 130.742 6.14933 130.742 6.464H129.35C129.35 5.90933 129.486 5.464 129.758 5.128C130.03 4.78667 130.403 4.54133 130.878 4.392C131.358 4.23733 131.905 4.16 132.518 4.16C133.105 4.16 133.625 4.25867 134.078 4.456C134.531 4.65333 134.886 4.968 135.142 5.4C135.398 5.82667 135.526 6.384 135.526 7.072V12H134.438ZM131.83 12.192C131.201 12.192 130.681 12.08 130.27 11.856C129.859 11.632 129.553 11.3413 129.35 10.984C129.147 10.6267 129.046 10.2507 129.046 9.856C129.046 9.33867 129.174 8.91733 129.43 8.592C129.691 8.26667 130.046 8.02933 130.494 7.88C130.942 7.72533 131.446 7.648 132.006 7.648C132.406 7.648 132.806 7.688 133.206 7.768C133.611 7.848 134.006 7.95733 134.39 8.096V8.88C134.07 8.752 133.707 8.65067 133.302 8.576C132.902 8.50133 132.534 8.464 132.198 8.464C131.686 8.464 131.254 8.57067 130.902 8.784C130.55 8.992 130.374 9.34933 130.374 9.856C130.374 10.2293 130.507 10.5493 130.774 10.816C131.046 11.0827 131.478 11.216 132.07 11.216C132.486 11.216 132.859 11.12 133.19 10.928C133.526 10.7307 133.79 10.4853 133.982 10.192C134.179 9.89867 134.278 9.60533 134.278 9.312H134.582C134.582 9.824 134.47 10.2987 134.246 10.736C134.027 11.1733 133.713 11.5253 133.302 11.792C132.891 12.0587 132.401 12.192 131.83 12.192ZM142.018 12.192C141.506 12.192 141.042 12.0587 140.626 11.792C140.216 11.5253 139.888 11.136 139.642 10.624C139.402 10.1067 139.282 9.47733 139.282 8.736H139.762C139.762 9.232 139.864 9.656 140.066 10.008C140.274 10.3547 140.541 10.6187 140.866 10.8C141.192 10.9813 141.533 11.072 141.89 11.072C142.301 11.072 142.677 10.9547 143.018 10.72C143.36 10.4853 143.632 10.1493 143.834 9.712C144.042 9.27467 144.146 8.752 144.146 8.144C144.146 7.54667 144.045 7.03467 143.842 6.608C143.64 6.176 143.365 5.84533 143.018 5.616C142.677 5.38133 142.296 5.264 141.874 5.264C141.512 5.264 141.168 5.35467 140.842 5.536C140.522 5.712 140.261 5.97333 140.058 6.32C139.861 6.66667 139.762 7.09333 139.762 7.6H139.282C139.282 6.87467 139.4 6.256 139.634 5.744C139.874 5.232 140.205 4.84 140.626 4.568C141.048 4.296 141.538 4.16 142.098 4.16C142.701 4.16 143.253 4.32267 143.754 4.648C144.261 4.968 144.666 5.42667 144.97 6.024C145.274 6.62133 145.426 7.328 145.426 8.144C145.426 8.96533 145.272 9.68 144.962 10.288C144.653 10.8907 144.24 11.36 143.722 11.696C143.205 12.0267 142.637 12.192 142.018 12.192ZM138.514 12V1.088H139.762V10.208L139.394 12H138.514ZM152.735 12L152.575 10.32V7.04C152.575 6.352 152.428 5.85867 152.135 5.56C151.841 5.256 151.401 5.104 150.815 5.104C150.484 5.104 150.183 5.152 149.911 5.248C149.644 5.344 149.431 5.49333 149.271 5.696C149.116 5.89333 149.039 6.14933 149.039 6.464H147.647C147.647 5.90933 147.783 5.464 148.055 5.128C148.327 4.78667 148.7 4.54133 149.175 4.392C149.655 4.23733 150.201 4.16 150.815 4.16C151.401 4.16 151.921 4.25867 152.375 4.456C152.828 4.65333 153.183 4.968 153.439 5.4C153.695 5.82667 153.823 6.384 153.823 7.072V12H152.735ZM150.127 12.192C149.497 12.192 148.977 12.08 148.567 11.856C148.156 11.632 147.849 11.3413 147.647 10.984C147.444 10.6267 147.343 10.2507 147.343 9.856C147.343 9.33867 147.471 8.91733 147.727 8.592C147.988 8.26667 148.343 8.02933 148.791 7.88C149.239 7.72533 149.743 7.648 150.303 7.648C150.703 7.648 151.103 7.688 151.503 7.768C151.908 7.848 152.303 7.95733 152.687 8.096V8.88C152.367 8.752 152.004 8.65067 151.599 8.576C151.199 8.50133 150.831 8.464 150.495 8.464C149.983 8.464 149.551 8.57067 149.199 8.784C148.847 8.992 148.671 9.34933 148.671 9.856C148.671 10.2293 148.804 10.5493 149.071 10.816C149.343 11.0827 149.775 11.216 150.367 11.216C150.783 11.216 151.156 11.12 151.487 10.928C151.823 10.7307 152.087 10.4853 152.279 10.192C152.476 9.89867 152.575 9.60533 152.575 9.312H152.879C152.879 9.824 152.767 10.2987 152.543 10.736C152.324 11.1733 152.009 11.5253 151.599 11.792C151.188 12.0587 150.697 12.192 150.127 12.192ZM156.811 12V1.088H158.059V12H156.811ZM166.736 12V7.504C166.736 6.77333 166.56 6.21867 166.208 5.84C165.861 5.456 165.386 5.264 164.784 5.264C164.325 5.264 163.928 5.38933 163.592 5.64C163.256 5.89067 162.997 6.25067 162.816 6.72C162.634 7.184 162.544 7.73867 162.544 8.384H162.064C162.064 7.49333 162.181 6.73333 162.416 6.104C162.65 5.47467 162.992 4.99467 163.44 4.664C163.893 4.328 164.442 4.16 165.088 4.16C165.69 4.16 166.205 4.296 166.632 4.568C167.064 4.83467 167.394 5.21867 167.624 5.72C167.853 6.22133 167.968 6.816 167.968 7.504V12H166.736ZM161.296 12V1.088H162.544V12H161.296ZM175.688 12L175.528 10.32V7.04C175.528 6.352 175.381 5.85867 175.088 5.56C174.795 5.256 174.355 5.104 173.768 5.104C173.437 5.104 173.136 5.152 172.864 5.248C172.597 5.344 172.384 5.49333 172.224 5.696C172.069 5.89333 171.992 6.14933 171.992 6.464H170.6C170.6 5.90933 170.736 5.464 171.008 5.128C171.28 4.78667 171.653 4.54133 172.128 4.392C172.608 4.23733 173.155 4.16 173.768 4.16C174.355 4.16 174.875 4.25867 175.328 4.456C175.781 4.65333 176.136 4.968 176.392 5.4C176.648 5.82667 176.776 6.384 176.776 7.072V12H175.688ZM173.08 12.192C172.451 12.192 171.931 12.08 171.52 11.856C171.109 11.632 170.803 11.3413 170.6 10.984C170.397 10.6267 170.296 10.2507 170.296 9.856C170.296 9.33867 170.424 8.91733 170.68 8.592C170.941 8.26667 171.296 8.02933 171.744 7.88C172.192 7.72533 172.696 7.648 173.256 7.648C173.656 7.648 174.056 7.688 174.456 7.768C174.861 7.848 175.256 7.95733 175.64 8.096V8.88C175.32 8.752 174.957 8.65067 174.552 8.576C174.152 8.50133 173.784 8.464 173.448 8.464C172.936 8.464 172.504 8.57067 172.152 8.784C171.8 8.992 171.624 9.34933 171.624 9.856C171.624 10.2293 171.757 10.5493 172.024 10.816C172.296 11.0827 172.728 11.216 173.32 11.216C173.736 11.216 174.109 11.12 174.44 10.928C174.776 10.7307 175.04 10.4853 175.232 10.192C175.429 9.89867 175.528 9.60533 175.528 9.312H175.832C175.832 9.824 175.72 10.2987 175.496 10.736C175.277 11.1733 174.963 11.5253 174.552 11.792C174.141 12.0587 173.651 12.192 173.08 12.192ZM179.764 12V4.336H181.012V12H179.764ZM180.628 8.544C180.628 7.57333 180.722 6.768 180.908 6.128C181.095 5.48267 181.367 5.00267 181.724 4.688C182.087 4.368 182.527 4.208 183.044 4.208C183.215 4.208 183.37 4.22133 183.508 4.248C183.652 4.26933 183.796 4.304 183.94 4.352L183.86 5.584C183.711 5.536 183.548 5.496 183.372 5.464C183.196 5.42667 183.039 5.408 182.9 5.408C182.447 5.408 182.082 5.53867 181.804 5.8C181.527 6.056 181.324 6.41867 181.196 6.888C181.074 7.35733 181.012 7.90933 181.012 8.544H180.628ZM192.031 12.192C191.417 12.192 190.844 12.0267 190.311 11.696C189.783 11.3653 189.356 10.8987 189.031 10.296C188.705 9.69333 188.543 8.98133 188.543 8.16C188.543 7.31733 188.705 6.59733 189.031 6C189.356 5.40267 189.783 4.94667 190.311 4.632C190.844 4.31733 191.417 4.16 192.031 4.16C192.463 4.16 192.849 4.22667 193.191 4.36C193.537 4.488 193.839 4.66667 194.095 4.896C194.351 5.12533 194.561 5.38667 194.727 5.68C194.897 5.968 195.023 6.272 195.103 6.592L193.823 6.704C193.689 6.26133 193.465 5.912 193.151 5.656C192.841 5.39467 192.463 5.264 192.015 5.264C191.636 5.264 191.279 5.37333 190.943 5.592C190.612 5.80533 190.343 6.128 190.135 6.56C189.927 6.98667 189.823 7.52 189.823 8.16C189.823 8.752 189.916 9.26667 190.103 9.704C190.295 10.136 190.556 10.472 190.887 10.712C191.217 10.952 191.593 11.072 192.015 11.072C192.607 11.072 193.055 10.928 193.359 10.64C193.668 10.3467 193.823 9.94133 193.823 9.424H195.103C195.103 9.95733 194.977 10.432 194.727 10.848C194.476 11.264 194.119 11.592 193.655 11.832C193.196 12.072 192.655 12.192 192.031 12.192ZM200.361 12.192C199.673 12.192 199.059 12.04 198.521 11.736C197.987 11.432 197.566 10.9813 197.257 10.384C196.947 9.78667 196.793 9.05067 196.793 8.176C196.793 7.296 196.947 6.56 197.257 5.968C197.566 5.37067 197.987 4.92 198.521 4.616C199.059 4.312 199.673 4.16 200.361 4.16C201.043 4.16 201.651 4.312 202.185 4.616C202.723 4.92 203.145 5.37067 203.449 5.968C203.758 6.56 203.913 7.296 203.913 8.176C203.913 9.05067 203.758 9.78667 203.449 10.384C203.145 10.9813 202.723 11.432 202.185 11.736C201.651 12.04 201.043 12.192 200.361 12.192ZM200.329 11.104C200.825 11.104 201.246 10.9867 201.593 10.752C201.939 10.512 202.201 10.1733 202.377 9.736C202.558 9.29867 202.649 8.77867 202.649 8.176C202.649 7.264 202.459 6.54667 202.081 6.024C201.702 5.496 201.139 5.232 200.393 5.232C199.891 5.232 199.467 5.352 199.121 5.592C198.779 5.82667 198.518 6.16533 198.337 6.608C198.161 7.04533 198.073 7.568 198.073 8.176C198.073 9.07733 198.262 9.792 198.641 10.32C199.025 10.8427 199.587 11.104 200.329 11.104ZM217.095 12V7.504C217.095 6.77333 216.919 6.21867 216.567 5.84C216.22 5.456 215.751 5.264 215.159 5.264C214.465 5.264 213.935 5.53333 213.567 6.072C213.199 6.60533 213.015 7.344 213.015 8.288H212.439C212.439 7.6 212.505 6.99733 212.639 6.48C212.777 5.96267 212.977 5.53333 213.239 5.192C213.5 4.84533 213.817 4.58667 214.191 4.416C214.564 4.24533 214.988 4.16 215.463 4.16C216.065 4.16 216.58 4.296 217.007 4.568C217.439 4.83467 217.769 5.21867 217.999 5.72C218.228 6.22133 218.343 6.816 218.343 7.504V12H217.095ZM206.343 12V4.352H207.415L207.559 5.888C207.799 5.33333 208.135 4.90667 208.567 4.608C209.004 4.30933 209.527 4.16 210.135 4.16C210.737 4.16 211.252 4.296 211.679 4.568C212.111 4.83467 212.441 5.21867 212.671 5.72C212.9 6.22133 213.015 6.816 213.015 7.504V12H211.783V7.504C211.783 6.77333 211.607 6.21867 211.255 5.84C210.908 5.456 210.433 5.264 209.831 5.264C209.372 5.264 208.975 5.38933 208.639 5.64C208.303 5.89067 208.044 6.25067 207.863 6.72C207.681 7.184 207.591 7.73867 207.591 8.384V12H206.343ZM222.015 2.544C221.759 2.544 221.557 2.472 221.407 2.328C221.258 2.17867 221.183 1.984 221.183 1.744C221.183 1.50933 221.258 1.32267 221.407 1.184C221.557 1.04533 221.759 0.976 222.015 0.976C222.271 0.976 222.474 1.04533 222.623 1.184C222.773 1.32267 222.847 1.50933 222.847 1.744C222.847 1.984 222.773 2.17867 222.623 2.328C222.474 2.472 222.271 2.544 222.015 2.544ZM221.391 12V4.336H222.639V12H221.391ZM228.781 15.936C227.997 15.936 227.317 15.824 226.741 15.6C226.165 15.3813 225.717 15.0853 225.397 14.712C225.082 14.344 224.925 13.936 224.925 13.488C224.925 12.896 225.141 12.4427 225.573 12.128C226.01 11.8187 226.573 11.664 227.261 11.664L227.949 12.096C227.373 12.096 226.928 12.216 226.613 12.456C226.298 12.696 226.141 13.024 226.141 13.44C226.141 13.856 226.365 14.208 226.813 14.496C227.261 14.784 227.917 14.928 228.781 14.928C229.421 14.928 229.981 14.8347 230.461 14.648C230.946 14.4667 231.322 14.2267 231.589 13.928C231.861 13.6347 231.997 13.3173 231.997 12.976C231.997 12.736 231.909 12.528 231.733 12.352C231.557 12.1813 231.288 12.096 230.925 12.096H227.949C227.432 12.096 226.984 12.0187 226.605 11.864C226.232 11.704 225.944 11.496 225.741 11.24C225.538 10.984 225.437 10.704 225.437 10.4C225.437 10.08 225.528 9.808 225.709 9.584C225.89 9.36 226.125 9.18933 226.413 9.072C226.706 8.95467 227.021 8.896 227.357 8.896L227.597 9.36C227.437 9.36 227.274 9.39733 227.109 9.472C226.949 9.54133 226.813 9.648 226.701 9.792C226.594 9.93067 226.541 10.1067 226.541 10.32C226.541 10.5653 226.642 10.7707 226.845 10.936C227.048 11.1013 227.416 11.184 227.949 11.184H230.925C231.645 11.184 232.21 11.336 232.621 11.64C233.037 11.944 233.245 12.368 233.245 12.912C233.245 13.4133 233.066 13.8933 232.709 14.352C232.352 14.816 231.84 15.1947 231.173 15.488C230.506 15.7867 229.709 15.936 228.781 15.936ZM229.005 9.76C228.418 9.76 227.888 9.64267 227.413 9.408C226.944 9.17333 226.57 8.84533 226.293 8.424C226.021 8.00267 225.885 7.51467 225.885 6.96C225.885 6.4 226.021 5.90933 226.293 5.488C226.57 5.06667 226.944 4.74133 227.413 4.512C227.888 4.27733 228.418 4.16 229.005 4.16C229.576 4.16 230.093 4.27733 230.557 4.512C231.026 4.74133 231.4 5.06667 231.677 5.488C231.954 5.90933 232.093 6.4 232.093 6.96C232.093 7.51467 231.954 8.00267 231.677 8.424C231.4 8.84533 231.026 9.17333 230.557 9.408C230.093 9.64267 229.576 9.76 229.005 9.76ZM229.005 8.864C229.592 8.864 230.048 8.68267 230.373 8.32C230.698 7.95733 230.861 7.504 230.861 6.96C230.861 6.4 230.698 5.94667 230.373 5.6C230.048 5.248 229.592 5.072 229.005 5.072C228.424 5.072 227.965 5.248 227.629 5.6C227.298 5.94667 227.133 6.4 227.133 6.96C227.133 7.504 227.298 7.95733 227.629 8.32C227.965 8.68267 228.424 8.864 229.005 8.864ZM231.517 5.376L230.925 5.136C230.925 4.688 231.013 4.296 231.189 3.96C231.365 3.61867 231.616 3.35467 231.941 3.168C232.266 2.976 232.653 2.88 233.101 2.88L233.005 4.112C232.525 4.112 232.157 4.216 231.901 4.424C231.645 4.62667 231.517 4.944 231.517 5.376ZM237.876 12.192C237.188 12.192 236.575 12.04 236.036 11.736C235.503 11.432 235.082 10.9813 234.772 10.384C234.463 9.78667 234.308 9.05067 234.308 8.176C234.308 7.296 234.463 6.56 234.772 5.968C235.082 5.37067 235.503 4.92 236.036 4.616C236.575 4.312 237.188 4.16 237.876 4.16C238.559 4.16 239.167 4.312 239.7 4.616C240.239 4.92 240.66 5.37067 240.964 5.968C241.274 6.56 241.428 7.296 241.428 8.176C241.428 9.05067 241.274 9.78667 240.964 10.384C240.66 10.9813 240.239 11.432 239.7 11.736C239.167 12.04 238.559 12.192 237.876 12.192ZM237.844 11.104C238.34 11.104 238.762 10.9867 239.108 10.752C239.455 10.512 239.716 10.1733 239.892 9.736C240.074 9.29867 240.164 8.77867 240.164 8.176C240.164 7.264 239.975 6.54667 239.596 6.024C239.218 5.496 238.655 5.232 237.908 5.232C237.407 5.232 236.983 5.352 236.636 5.592C236.295 5.82667 236.034 6.16533 235.852 6.608C235.676 7.04533 235.588 7.568 235.588 8.176C235.588 9.07733 235.778 9.792 236.156 10.32C236.54 10.8427 237.103 11.104 237.844 11.104ZM245.074 9.44V8.72C245.074 8.256 245.122 7.87467 245.218 7.576C245.32 7.27733 245.485 7.01867 245.714 6.8C245.944 6.58133 246.258 6.36267 246.658 6.144C247.016 5.952 247.301 5.77333 247.514 5.608C247.728 5.44267 247.88 5.264 247.97 5.072C248.066 4.88 248.114 4.64533 248.114 4.368C248.114 3.952 247.944 3.60533 247.602 3.328C247.266 3.05067 246.802 2.912 246.21 2.912C245.554 2.912 245.053 3.04267 244.706 3.304C244.36 3.56 244.141 3.92 244.05 4.384H242.722C242.797 3.60533 243.122 2.976 243.698 2.496C244.28 2.016 245.106 1.776 246.178 1.776C246.861 1.776 247.448 1.896 247.938 2.136C248.434 2.37067 248.813 2.688 249.074 3.088C249.341 3.48267 249.474 3.92 249.474 4.4C249.474 4.94933 249.336 5.41067 249.058 5.784C248.781 6.152 248.333 6.50133 247.714 6.832C247.357 7.02933 247.074 7.21333 246.866 7.384C246.664 7.54933 246.52 7.74133 246.434 7.96C246.349 8.17333 246.306 8.45333 246.306 8.8V9.44H245.074ZM245.714 12.192C245.448 12.192 245.226 12.1067 245.05 11.936C244.874 11.76 244.786 11.5493 244.786 11.304C244.786 11.0533 244.872 10.8373 245.042 10.656C245.218 10.4747 245.44 10.384 245.706 10.384C245.973 10.384 246.2 10.4747 246.386 10.656C246.578 10.832 246.674 11.0453 246.674 11.296C246.674 11.5413 246.581 11.752 246.394 11.928C246.208 12.104 245.981 12.192 245.714 12.192ZM255.624 1.952H257.416L260.872 8.896H260.744L264.2 1.952H265.944V12H264.68V3.248H264.904L261.224 10.736H260.392L256.728 3.296H256.872V12H255.624V1.952ZM273.907 12L273.747 10.32V7.04C273.747 6.352 273.6 5.85867 273.307 5.56C273.013 5.256 272.573 5.104 271.987 5.104C271.656 5.104 271.355 5.152 271.083 5.248C270.816 5.344 270.603 5.49333 270.443 5.696C270.288 5.89333 270.211 6.14933 270.211 6.464H268.819C268.819 5.90933 268.955 5.464 269.227 5.128C269.499 4.78667 269.872 4.54133 270.347 4.392C270.827 4.23733 271.373 4.16 271.987 4.16C272.573 4.16 273.093 4.25867 273.547 4.456C274 4.65333 274.355 4.968 274.611 5.4C274.867 5.82667 274.995 6.384 274.995 7.072V12H273.907ZM271.299 12.192C270.669 12.192 270.149 12.08 269.739 11.856C269.328 11.632 269.021 11.3413 268.819 10.984C268.616 10.6267 268.515 10.2507 268.515 9.856C268.515 9.33867 268.643 8.91733 268.899 8.592C269.16 8.26667 269.515 8.02933 269.963 7.88C270.411 7.72533 270.915 7.648 271.475 7.648C271.875 7.648 272.275 7.688 272.675 7.768C273.08 7.848 273.475 7.95733 273.859 8.096V8.88C273.539 8.752 273.176 8.65067 272.771 8.576C272.371 8.50133 272.003 8.464 271.667 8.464C271.155 8.464 270.723 8.57067 270.371 8.784C270.019 8.992 269.843 9.34933 269.843 9.856C269.843 10.2293 269.976 10.5493 270.243 10.816C270.515 11.0827 270.947 11.216 271.539 11.216C271.955 11.216 272.328 11.12 272.659 10.928C272.995 10.7307 273.259 10.4853 273.451 10.192C273.648 9.89867 273.747 9.60533 273.747 9.312H274.051C274.051 9.824 273.939 10.2987 273.715 10.736C273.496 11.1733 273.181 11.5253 272.771 11.792C272.36 12.0587 271.869 12.192 271.299 12.192ZM283.423 12V7.504C283.423 6.77333 283.247 6.21867 282.895 5.84C282.549 5.456 282.074 5.264 281.471 5.264C281.013 5.264 280.615 5.38933 280.279 5.64C279.943 5.89067 279.685 6.25067 279.503 6.72C279.322 7.184 279.231 7.73867 279.231 8.384H278.751C278.751 7.49333 278.869 6.73333 279.103 6.104C279.338 5.47467 279.679 4.99467 280.127 4.664C280.581 4.328 281.13 4.16 281.775 4.16C282.378 4.16 282.893 4.296 283.319 4.568C283.751 4.83467 284.082 5.21867 284.311 5.72C284.541 6.22133 284.655 6.816 284.655 7.504V12H283.423ZM277.983 12V4.352H279.055L279.231 6.112V12H277.983ZM290.375 12.192C289.757 12.192 289.189 12.0267 288.671 11.696C288.154 11.36 287.741 10.8907 287.431 10.288C287.122 9.68 286.967 8.96533 286.967 8.144C286.967 7.328 287.119 6.62133 287.423 6.024C287.727 5.42667 288.13 4.968 288.631 4.648C289.138 4.32267 289.693 4.16 290.295 4.16C290.855 4.16 291.346 4.296 291.767 4.568C292.194 4.84 292.525 5.232 292.759 5.744C292.994 6.256 293.111 6.87467 293.111 7.6H292.631C292.631 7.09333 292.53 6.66667 292.327 6.32C292.13 5.97333 291.871 5.712 291.551 5.536C291.231 5.35467 290.887 5.264 290.519 5.264C290.103 5.264 289.722 5.38133 289.375 5.616C289.034 5.84533 288.759 6.176 288.551 6.608C288.349 7.03467 288.247 7.54667 288.247 8.144C288.247 8.752 288.349 9.27467 288.551 9.712C288.759 10.1493 289.034 10.4853 289.375 10.72C289.722 10.9547 290.103 11.072 290.519 11.072C290.866 11.072 291.199 10.9813 291.519 10.8C291.845 10.6187 292.111 10.3547 292.319 10.008C292.527 9.656 292.631 9.232 292.631 8.736H293.111C293.111 9.47733 292.989 10.1067 292.743 10.624C292.503 11.136 292.175 11.5253 291.759 11.792C291.349 12.0587 290.887 12.192 290.375 12.192ZM292.839 12L292.631 10.208V1.088H293.879V12H292.839ZM299.78 12.192C299.118 12.192 298.526 12.024 298.004 11.688C297.486 11.3467 297.076 10.8747 296.772 10.272C296.473 9.66933 296.324 8.976 296.324 8.192C296.324 7.35467 296.473 6.63467 296.772 6.032C297.07 5.42933 297.478 4.968 297.996 4.648C298.518 4.32267 299.113 4.16 299.78 4.16C300.361 4.16 300.857 4.27733 301.268 4.512C301.678 4.74667 302.009 5.064 302.26 5.464C302.51 5.864 302.684 6.31733 302.78 6.824C302.881 7.32533 302.91 7.84533 302.868 8.384H297.332V7.616H302.044L301.676 7.856C301.692 7.54133 301.673 7.22667 301.62 6.912C301.572 6.59733 301.478 6.30933 301.34 6.048C301.201 5.78133 301.006 5.568 300.756 5.408C300.505 5.248 300.185 5.168 299.796 5.168C299.305 5.168 298.894 5.29333 298.564 5.544C298.233 5.79467 297.985 6.12533 297.82 6.536C297.654 6.94133 297.572 7.38133 297.572 7.856V8.368C297.572 8.90133 297.652 9.37867 297.812 9.8C297.977 10.2213 298.222 10.5547 298.548 10.8C298.873 11.0453 299.284 11.168 299.78 11.168C300.276 11.168 300.684 11.048 301.004 10.808C301.324 10.568 301.518 10.2133 301.588 9.744H302.884C302.804 10.2507 302.622 10.688 302.34 11.056C302.057 11.4187 301.697 11.6987 301.26 11.896C300.822 12.0933 300.329 12.192 299.78 12.192ZM97.1129 24.336H98.3609V32H97.1129V24.336ZM91.6889 24.336H92.9369V29.104C92.9369 29.744 93.0915 30.2293 93.4009 30.56C93.7155 30.8907 94.1635 31.056 94.7449 31.056C95.2249 31.056 95.6409 30.928 95.9929 30.672C96.3502 30.416 96.6249 30.064 96.8169 29.616C97.0142 29.1627 97.1129 28.6453 97.1129 28.064H97.5769C97.5769 28.9227 97.4515 29.656 97.2009 30.264C96.9555 30.872 96.6062 31.3387 96.1529 31.664C95.7049 31.984 95.1769 32.144 94.5689 32.144C93.9929 32.144 93.4889 32.0373 93.0569 31.824C92.6249 31.6107 92.2889 31.288 92.0489 30.856C91.8089 30.4187 91.6889 29.8667 91.6889 29.2V24.336ZM112.352 32V27.504C112.352 26.7733 112.176 26.2187 111.824 25.84C111.478 25.456 111.008 25.264 110.416 25.264C109.723 25.264 109.192 25.5333 108.824 26.072C108.456 26.6053 108.272 27.344 108.272 28.288H107.696C107.696 27.6 107.763 26.9973 107.896 26.48C108.035 25.9627 108.235 25.5333 108.496 25.192C108.758 24.8453 109.075 24.5867 109.448 24.416C109.822 24.2453 110.246 24.16 110.72 24.16C111.323 24.16 111.838 24.296 112.264 24.568C112.696 24.8347 113.027 25.2187 113.256 25.72C113.486 26.2213 113.6 26.816 113.6 27.504V32H112.352ZM101.6 32V24.352H102.672L102.816 25.888C103.056 25.3333 103.392 24.9067 103.824 24.608C104.262 24.3093 104.784 24.16 105.392 24.16C105.995 24.16 106.51 24.296 106.936 24.568C107.368 24.8347 107.699 25.2187 107.928 25.72C108.158 26.2213 108.272 26.816 108.272 27.504V32H107.04V27.504C107.04 26.7733 106.864 26.2187 106.512 25.84C106.166 25.456 105.691 25.264 105.088 25.264C104.63 25.264 104.232 25.3893 103.896 25.64C103.56 25.8907 103.302 26.2507 103.12 26.72C102.939 27.184 102.848 27.7387 102.848 28.384V32H101.6ZM121.305 32L121.145 30.32V27.04C121.145 26.352 120.998 25.8587 120.705 25.56C120.412 25.256 119.972 25.104 119.385 25.104C119.054 25.104 118.753 25.152 118.481 25.248C118.214 25.344 118.001 25.4933 117.841 25.696C117.686 25.8933 117.609 26.1493 117.609 26.464H116.217C116.217 25.9093 116.353 25.464 116.625 25.128C116.897 24.7867 117.27 24.5413 117.745 24.392C118.225 24.2373 118.772 24.16 119.385 24.16C119.972 24.16 120.492 24.2587 120.945 24.456C121.398 24.6533 121.753 24.968 122.009 25.4C122.265 25.8267 122.393 26.384 122.393 27.072V32H121.305ZM118.697 32.192C118.068 32.192 117.548 32.08 117.137 31.856C116.726 31.632 116.42 31.3413 116.217 30.984C116.014 30.6267 115.913 30.2507 115.913 29.856C115.913 29.3387 116.041 28.9173 116.297 28.592C116.558 28.2667 116.913 28.0293 117.361 27.88C117.809 27.7253 118.313 27.648 118.873 27.648C119.273 27.648 119.673 27.688 120.073 27.768C120.478 27.848 120.873 27.9573 121.257 28.096V28.88C120.937 28.752 120.574 28.6507 120.169 28.576C119.769 28.5013 119.401 28.464 119.065 28.464C118.553 28.464 118.121 28.5707 117.769 28.784C117.417 28.992 117.241 29.3493 117.241 29.856C117.241 30.2293 117.374 30.5493 117.641 30.816C117.913 31.0827 118.345 31.216 118.937 31.216C119.353 31.216 119.726 31.12 120.057 30.928C120.393 30.7307 120.657 30.4853 120.849 30.192C121.046 29.8987 121.145 29.6053 121.145 29.312H121.449C121.449 29.824 121.337 30.2987 121.113 30.736C120.894 31.1733 120.58 31.5253 120.169 31.792C119.758 32.0587 119.268 32.192 118.697 32.192ZM139.931 32V27.504C139.931 26.7733 139.755 26.2187 139.403 25.84C139.056 25.456 138.587 25.264 137.995 25.264C137.301 25.264 136.771 25.5333 136.403 26.072C136.035 26.6053 135.851 27.344 135.851 28.288H135.275C135.275 27.6 135.341 26.9973 135.475 26.48C135.613 25.9627 135.813 25.5333 136.075 25.192C136.336 24.8453 136.653 24.5867 137.027 24.416C137.4 24.2453 137.824 24.16 138.299 24.16C138.901 24.16 139.416 24.296 139.843 24.568C140.275 24.8347 140.605 25.2187 140.835 25.72C141.064 26.2213 141.179 26.816 141.179 27.504V32H139.931ZM129.179 32V24.352H130.251L130.395 25.888C130.635 25.3333 130.971 24.9067 131.403 24.608C131.84 24.3093 132.363 24.16 132.971 24.16C133.573 24.16 134.088 24.296 134.515 24.568C134.947 24.8347 135.277 25.2187 135.507 25.72C135.736 26.2213 135.851 26.816 135.851 27.504V32H134.619V27.504C134.619 26.7733 134.443 26.2187 134.091 25.84C133.744 25.456 133.269 25.264 132.667 25.264C132.208 25.264 131.811 25.3893 131.475 25.64C131.139 25.8907 130.88 26.2507 130.699 26.72C130.517 27.184 130.427 27.7387 130.427 28.384V32H129.179ZM146.803 32.192C146.142 32.192 145.55 32.024 145.027 31.688C144.51 31.3467 144.099 30.8747 143.795 30.272C143.497 29.6693 143.347 28.976 143.347 28.192C143.347 27.3547 143.497 26.6347 143.795 26.032C144.094 25.4293 144.502 24.968 145.019 24.648C145.542 24.3227 146.137 24.16 146.803 24.16C147.385 24.16 147.881 24.2773 148.291 24.512C148.702 24.7467 149.033 25.064 149.283 25.464C149.534 25.864 149.707 26.3173 149.803 26.824C149.905 27.3253 149.934 27.8453 149.891 28.384H144.355V27.616H149.067L148.699 27.856C148.715 27.5413 148.697 27.2267 148.643 26.912C148.595 26.5973 148.502 26.3093 148.363 26.048C148.225 25.7813 148.03 25.568 147.779 25.408C147.529 25.248 147.209 25.168 146.819 25.168C146.329 25.168 145.918 25.2933 145.587 25.544C145.257 25.7947 145.009 26.1253 144.843 26.536C144.678 26.9413 144.595 27.3813 144.595 27.856V28.368C144.595 28.9013 144.675 29.3787 144.835 29.8C145.001 30.2213 145.246 30.5547 145.571 30.8C145.897 31.0453 146.307 31.168 146.803 31.168C147.299 31.168 147.707 31.048 148.027 30.808C148.347 30.568 148.542 30.2133 148.611 29.744H149.907C149.827 30.2507 149.646 30.688 149.363 31.056C149.081 31.4187 148.721 31.6987 148.283 31.896C147.846 32.0933 147.353 32.192 146.803 32.192ZM157.806 32V27.504C157.806 26.7733 157.63 26.2187 157.278 25.84C156.931 25.456 156.457 25.264 155.854 25.264C155.395 25.264 154.998 25.3893 154.662 25.64C154.326 25.8907 154.067 26.2507 153.886 26.72C153.705 27.184 153.614 27.7387 153.614 28.384H153.134C153.134 27.4933 153.251 26.7333 153.486 26.104C153.721 25.4747 154.062 24.9947 154.51 24.664C154.963 24.328 155.513 24.16 156.158 24.16C156.761 24.16 157.275 24.296 157.702 24.568C158.134 24.8347 158.465 25.2187 158.694 25.72C158.923 26.2213 159.038 26.816 159.038 27.504V32H157.806ZM152.366 32V24.352H153.438L153.614 26.112V32H152.366ZM164.774 32.192C164.033 32.192 163.414 32.088 162.918 31.88C162.422 31.6667 162.046 31.376 161.79 31.008C161.534 30.6347 161.398 30.208 161.382 29.728H162.582C162.609 30.2133 162.804 30.5787 163.166 30.824C163.534 31.064 164.033 31.184 164.662 31.184C164.993 31.184 165.297 31.1307 165.574 31.024C165.852 30.9173 166.073 30.7707 166.238 30.584C166.404 30.3973 166.486 30.1867 166.486 29.952C166.486 29.6533 166.377 29.4187 166.158 29.248C165.94 29.0773 165.59 28.928 165.11 28.8L163.622 28.32C162.977 28.1173 162.481 27.84 162.134 27.488C161.793 27.1307 161.622 26.704 161.622 26.208C161.622 25.5893 161.894 25.0933 162.438 24.72C162.982 24.3467 163.697 24.16 164.582 24.16C165.521 24.16 166.249 24.352 166.766 24.736C167.284 25.12 167.553 25.6 167.574 26.176H166.342C166.294 25.84 166.124 25.5867 165.83 25.416C165.537 25.24 165.121 25.152 164.582 25.152C164.065 25.152 163.66 25.2693 163.366 25.504C163.078 25.7333 162.934 25.9893 162.934 26.272C162.934 26.8 163.388 27.1893 164.294 27.44L165.814 27.952C166.47 28.1493 166.972 28.408 167.318 28.728C167.67 29.048 167.846 29.456 167.846 29.952C167.846 30.336 167.721 30.6987 167.47 31.04C167.22 31.3813 166.865 31.6587 166.406 31.872C165.948 32.0853 165.404 32.192 164.774 32.192ZM175.165 32L175.005 30.32V27.04C175.005 26.352 174.858 25.8587 174.565 25.56C174.271 25.256 173.831 25.104 173.245 25.104C172.914 25.104 172.613 25.152 172.341 25.248C172.074 25.344 171.861 25.4933 171.701 25.696C171.546 25.8933 171.469 26.1493 171.469 26.464H170.077C170.077 25.9093 170.213 25.464 170.485 25.128C170.757 24.7867 171.13 24.5413 171.605 24.392C172.085 24.2373 172.631 24.16 173.245 24.16C173.831 24.16 174.351 24.2587 174.805 24.456C175.258 24.6533 175.613 24.968 175.869 25.4C176.125 25.8267 176.253 26.384 176.253 27.072V32H175.165ZM172.557 32.192C171.927 32.192 171.407 32.08 170.997 31.856C170.586 31.632 170.279 31.3413 170.077 30.984C169.874 30.6267 169.773 30.2507 169.773 29.856C169.773 29.3387 169.901 28.9173 170.157 28.592C170.418 28.2667 170.773 28.0293 171.221 27.88C171.669 27.7253 172.173 27.648 172.733 27.648C173.133 27.648 173.533 27.688 173.933 27.768C174.338 27.848 174.733 27.9573 175.117 28.096V28.88C174.797 28.752 174.434 28.6507 174.029 28.576C173.629 28.5013 173.261 28.464 172.924 28.464C172.413 28.464 171.981 28.5707 171.629 28.784C171.277 28.992 171.101 29.3493 171.101 29.856C171.101 30.2293 171.234 30.5493 171.501 30.816C171.773 31.0827 172.205 31.216 172.797 31.216C173.213 31.216 173.586 31.12 173.917 30.928C174.253 30.7307 174.517 30.4853 174.709 30.192C174.906 29.8987 175.005 29.6053 175.005 29.312H175.309C175.309 29.824 175.197 30.2987 174.973 30.736C174.754 31.1733 174.439 31.5253 174.029 31.792C173.618 32.0587 173.127 32.192 172.557 32.192ZM181.945 35.936C181.161 35.936 180.481 35.824 179.905 35.6C179.329 35.3813 178.881 35.0853 178.561 34.712C178.246 34.344 178.089 33.936 178.089 33.488C178.089 32.896 178.305 32.4427 178.737 32.128C179.174 31.8187 179.737 31.664 180.425 31.664L181.113 32.096C180.537 32.096 180.092 32.216 179.777 32.456C179.462 32.696 179.305 33.024 179.305 33.44C179.305 33.856 179.529 34.208 179.977 34.496C180.425 34.784 181.081 34.928 181.945 34.928C182.585 34.928 183.145 34.8347 183.625 34.648C184.11 34.4667 184.486 34.2267 184.753 33.928C185.025 33.6347 185.161 33.3173 185.161 32.976C185.161 32.736 185.073 32.528 184.897 32.352C184.721 32.1813 184.452 32.096 184.089 32.096H181.113C180.596 32.096 180.148 32.0187 179.769 31.864C179.396 31.704 179.108 31.496 178.905 31.24C178.702 30.984 178.601 30.704 178.601 30.4C178.601 30.08 178.692 29.808 178.873 29.584C179.054 29.36 179.289 29.1893 179.577 29.072C179.87 28.9547 180.185 28.896 180.521 28.896L180.761 29.36C180.601 29.36 180.438 29.3973 180.273 29.472C180.113 29.5413 179.977 29.648 179.865 29.792C179.758 29.9307 179.705 30.1067 179.705 30.32C179.705 30.5653 179.806 30.7707 180.009 30.936C180.212 31.1013 180.58 31.184 181.113 31.184H184.089C184.809 31.184 185.374 31.336 185.785 31.64C186.201 31.944 186.409 32.368 186.409 32.912C186.409 33.4133 186.23 33.8933 185.873 34.352C185.516 34.816 185.004 35.1947 184.337 35.488C183.67 35.7867 182.873 35.936 181.945 35.936ZM182.169 29.76C181.582 29.76 181.052 29.6427 180.577 29.408C180.108 29.1733 179.734 28.8453 179.457 28.424C179.185 28.0027 179.049 27.5147 179.049 26.96C179.049 26.4 179.185 25.9093 179.457 25.488C179.734 25.0667 180.108 24.7413 180.577 24.512C181.052 24.2773 181.582 24.16 182.169 24.16C182.74 24.16 183.257 24.2773 183.721 24.512C184.19 24.7413 184.564 25.0667 184.841 25.488C185.118 25.9093 185.257 26.4 185.257 26.96C185.257 27.5147 185.118 28.0027 184.841 28.424C184.564 28.8453 184.19 29.1733 183.721 29.408C183.257 29.6427 182.74 29.76 182.169 29.76ZM182.169 28.864C182.756 28.864 183.212 28.6827 183.537 28.32C183.862 27.9573 184.025 27.504 184.025 26.96C184.025 26.4 183.862 25.9467 183.537 25.6C183.212 25.248 182.756 25.072 182.169 25.072C181.588 25.072 181.129 25.248 180.793 25.6C180.462 25.9467 180.297 26.4 180.297 26.96C180.297 27.504 180.462 27.9573 180.793 28.32C181.129 28.6827 181.588 28.864 182.169 28.864ZM184.681 25.376L184.089 25.136C184.089 24.688 184.177 24.296 184.353 23.96C184.529 23.6187 184.78 23.3547 185.105 23.168C185.43 22.976 185.817 22.88 186.265 22.88L186.169 24.112C185.689 24.112 185.321 24.216 185.065 24.424C184.809 24.6267 184.681 24.944 184.681 25.376ZM190.928 32.192C190.267 32.192 189.675 32.024 189.152 31.688C188.635 31.3467 188.224 30.8747 187.92 30.272C187.622 29.6693 187.472 28.976 187.472 28.192C187.472 27.3547 187.622 26.6347 187.92 26.032C188.219 25.4293 188.627 24.968 189.144 24.648C189.667 24.3227 190.262 24.16 190.928 24.16C191.51 24.16 192.006 24.2773 192.416 24.512C192.827 24.7467 193.158 25.064 193.408 25.464C193.659 25.864 193.832 26.3173 193.928 26.824C194.03 27.3253 194.059 27.8453 194.016 28.384H188.48V27.616H193.192L192.824 27.856C192.84 27.5413 192.822 27.2267 192.768 26.912C192.72 26.5973 192.627 26.3093 192.488 26.048C192.35 25.7813 192.155 25.568 191.904 25.408C191.654 25.248 191.334 25.168 190.944 25.168C190.454 25.168 190.043 25.2933 189.712 25.544C189.382 25.7947 189.134 26.1253 188.968 26.536C188.803 26.9413 188.72 27.3813 188.72 27.856V28.368C188.72 28.9013 188.8 29.3787 188.96 29.8C189.126 30.2213 189.371 30.5547 189.696 30.8C190.022 31.0453 190.432 31.168 190.928 31.168C191.424 31.168 191.832 31.048 192.152 30.808C192.472 30.568 192.667 30.2133 192.736 29.744H194.032C193.952 30.2507 193.771 30.688 193.488 31.056C193.206 31.4187 192.846 31.6987 192.408 31.896C191.971 32.0933 191.478 32.192 190.928 32.192ZM207.243 32V27.504C207.243 26.7733 207.067 26.2187 206.715 25.84C206.368 25.456 205.899 25.264 205.307 25.264C204.614 25.264 204.083 25.5333 203.715 26.072C203.347 26.6053 203.163 27.344 203.163 28.288H202.587C202.587 27.6 202.654 26.9973 202.787 26.48C202.926 25.9627 203.126 25.5333 203.387 25.192C203.648 24.8453 203.966 24.5867 204.339 24.416C204.712 24.2453 205.136 24.16 205.611 24.16C206.214 24.16 206.728 24.296 207.155 24.568C207.587 24.8347 207.918 25.2187 208.147 25.72C208.376 26.2213 208.491 26.816 208.491 27.504V32H207.243ZM196.491 32V24.352H197.563L197.707 25.888C197.947 25.3333 198.283 24.9067 198.715 24.608C199.152 24.3093 199.675 24.16 200.283 24.16C200.886 24.16 201.4 24.296 201.827 24.568C202.259 24.8347 202.59 25.2187 202.819 25.72C203.048 26.2213 203.163 26.816 203.163 27.504V32H201.931V27.504C201.931 26.7733 201.755 26.2187 201.403 25.84C201.056 25.456 200.582 25.264 199.979 25.264C199.52 25.264 199.123 25.3893 198.787 25.64C198.451 25.8907 198.192 26.2507 198.011 26.72C197.83 27.184 197.739 27.7387 197.739 28.384V32H196.491ZM210.324 31.256C210.324 31.0053 210.412 30.7893 210.588 30.608C210.764 30.4267 210.985 30.336 211.252 30.336C211.518 30.336 211.745 30.4267 211.932 30.608C212.118 30.7893 212.212 31.0053 212.212 31.256C212.212 31.5067 212.118 31.7173 211.932 31.888C211.745 32.0587 211.518 32.144 211.252 32.144C210.985 32.144 210.764 32.0587 210.588 31.888C210.412 31.712 210.324 31.5013 210.324 31.256Z" fill="#E8EAED"/>
</svg>
