<svg width="106" height="10" viewBox="0 0 106 10" fill="none" xmlns="http://www.w3.org/2000/svg">
<path d="M4.074 9.072C3.554 9.072 3.064 8.974 2.604 8.778C2.148 8.582 1.746 8.31 1.398 7.962C1.05 7.614 0.778 7.212 0.582 6.756C0.386 6.3 0.288 5.81 0.288 5.286C0.288 4.766 0.386 4.278 0.582 3.822C0.778 3.362 1.05 2.958 1.398 2.61C1.746 2.262 2.148 1.99 2.604 1.794C3.064 1.598 3.554 1.5 4.074 1.5C4.594 1.5 5.082 1.598 5.538 1.794C5.998 1.99 6.402 2.262 6.75 2.61C7.098 2.958 7.37 3.362 7.566 3.822C7.762 4.278 7.86 4.766 7.86 5.286C7.86 5.81 7.762 6.3 7.566 6.756C7.37 7.212 7.098 7.614 6.75 7.962C6.402 8.31 5.998 8.582 5.538 8.778C5.082 8.974 4.594 9.072 4.074 9.072ZM4.074 8.682C4.546 8.682 4.986 8.594 5.394 8.418C5.802 8.242 6.162 7.998 6.474 7.686C6.786 7.374 7.03 7.014 7.206 6.606C7.382 6.194 7.47 5.754 7.47 5.286C7.47 4.818 7.382 4.38 7.206 3.972C7.03 3.56 6.786 3.198 6.474 2.886C6.162 2.574 5.802 2.33 5.394 2.154C4.986 1.978 4.546 1.89 4.074 1.89C3.61 1.89 3.172 1.978 2.76 2.154C2.348 2.33 1.986 2.574 1.674 2.886C1.362 3.198 1.118 3.56 0.942 3.972C0.766 4.38 0.678 4.818 0.678 5.286C0.678 5.754 0.766 6.194 0.942 6.606C1.118 7.014 1.362 7.374 1.674 7.686C1.986 7.998 2.348 8.242 2.76 8.418C3.172 8.594 3.61 8.682 4.074 8.682ZM4.056 7.674C3.648 7.674 3.298 7.57 3.006 7.362C2.714 7.15 2.49 6.86 2.334 6.492C2.178 6.124 2.1 5.706 2.1 5.238C2.1 4.73 2.186 4.302 2.358 3.954C2.534 3.606 2.77 3.342 3.066 3.162C3.362 2.982 3.692 2.892 4.056 2.892C4.524 2.892 4.906 3.012 5.202 3.252C5.502 3.488 5.718 3.798 5.85 4.182L5.376 4.29C5.272 3.978 5.102 3.732 4.866 3.552C4.63 3.368 4.36 3.276 4.056 3.276C3.796 3.276 3.552 3.352 3.324 3.504C3.096 3.652 2.912 3.872 2.772 4.164C2.636 4.452 2.568 4.81 2.568 5.238C2.568 5.618 2.62 5.964 2.724 6.276C2.832 6.584 2.994 6.83 3.21 7.014C3.43 7.194 3.712 7.284 4.056 7.284C4.456 7.284 4.776 7.176 5.016 6.96C5.256 6.744 5.376 6.458 5.376 6.102H5.856C5.856 6.59 5.686 6.974 5.346 7.254C5.01 7.534 4.58 7.674 4.056 7.674ZM11.6904 9V7.992C11.6904 7.556 11.7624 7.196 11.9064 6.912C12.0544 6.624 12.2564 6.388 12.5124 6.204C12.7724 6.02 13.0664 5.862 13.3944 5.73L14.8284 5.154C15.2324 4.986 15.5364 4.772 15.7404 4.512C15.9444 4.252 16.0464 3.922 16.0464 3.522C16.0464 3.098 15.9004 2.754 15.6084 2.49C15.3204 2.226 14.9204 2.094 14.4084 2.094C13.8924 2.094 13.4724 2.198 13.1484 2.406C12.8284 2.614 12.6464 2.926 12.6024 3.342H11.8224C11.8584 2.954 11.9824 2.62 12.1944 2.34C12.4104 2.06 12.7024 1.846 13.0704 1.698C13.4424 1.546 13.8864 1.47 14.4024 1.47C14.8664 1.47 15.2804 1.562 15.6444 1.746C16.0084 1.926 16.2944 2.176 16.5024 2.496C16.7104 2.812 16.8144 3.174 16.8144 3.582C16.8144 3.962 16.7424 4.292 16.5984 4.572C16.4544 4.852 16.2564 5.092 16.0044 5.292C15.7564 5.492 15.4724 5.658 15.1524 5.79L13.6704 6.396C13.2504 6.56 12.9304 6.762 12.7104 7.002C12.4944 7.238 12.3864 7.546 12.3864 7.926V8.352H16.7304V9H11.6904ZM21.151 9.132C20.583 9.132 20.089 8.99 19.669 8.706C19.249 8.422 18.923 7.996 18.691 7.428C18.459 6.856 18.343 6.144 18.343 5.292C18.343 4.44 18.459 3.732 18.691 3.168C18.923 2.6 19.249 2.176 19.669 1.896C20.089 1.612 20.583 1.47 21.151 1.47C21.719 1.47 22.213 1.612 22.633 1.896C23.053 2.176 23.379 2.6 23.611 3.168C23.847 3.732 23.965 4.44 23.965 5.292C23.965 6.144 23.847 6.856 23.611 7.428C23.379 7.996 23.053 8.422 22.633 8.706C22.213 8.99 21.719 9.132 21.151 9.132ZM21.151 8.484C21.843 8.484 22.363 8.206 22.711 7.65C23.063 7.09 23.239 6.304 23.239 5.292C23.239 4.28 23.063 3.496 22.711 2.94C22.363 2.384 21.843 2.106 21.151 2.106C20.471 2.106 19.953 2.384 19.597 2.94C19.245 3.496 19.069 4.28 19.069 5.292C19.069 6.304 19.245 7.09 19.597 7.65C19.953 8.206 20.471 8.484 21.151 8.484ZM25.3897 9V7.992C25.3897 7.556 25.4617 7.196 25.6057 6.912C25.7537 6.624 25.9557 6.388 26.2117 6.204C26.4717 6.02 26.7657 5.862 27.0937 5.73L28.5277 5.154C28.9317 4.986 29.2357 4.772 29.4397 4.512C29.6437 4.252 29.7457 3.922 29.7457 3.522C29.7457 3.098 29.5997 2.754 29.3077 2.49C29.0197 2.226 28.6197 2.094 28.1077 2.094C27.5917 2.094 27.1717 2.198 26.8477 2.406C26.5277 2.614 26.3457 2.926 26.3017 3.342H25.5217C25.5577 2.954 25.6817 2.62 25.8937 2.34C26.1097 2.06 26.4017 1.846 26.7697 1.698C27.1417 1.546 27.5857 1.47 28.1017 1.47C28.5657 1.47 28.9797 1.562 29.3437 1.746C29.7077 1.926 29.9937 2.176 30.2017 2.496C30.4097 2.812 30.5137 3.174 30.5137 3.582C30.5137 3.962 30.4417 4.292 30.2977 4.572C30.1537 4.852 29.9557 5.092 29.7037 5.292C29.4557 5.492 29.1717 5.658 28.8517 5.79L27.3697 6.396C26.9497 6.56 26.6297 6.762 26.4097 7.002C26.1937 7.238 26.0857 7.546 26.0857 7.926V8.352H30.4297V9H25.3897ZM32.1982 9V7.992C32.1982 7.556 32.2703 7.196 32.4143 6.912C32.5623 6.624 32.7643 6.388 33.0203 6.204C33.2803 6.02 33.5743 5.862 33.9023 5.73L35.3363 5.154C35.7403 4.986 36.0443 4.772 36.2483 4.512C36.4523 4.252 36.5543 3.922 36.5543 3.522C36.5543 3.098 36.4083 2.754 36.1163 2.49C35.8283 2.226 35.4283 2.094 34.9163 2.094C34.4003 2.094 33.9803 2.198 33.6563 2.406C33.3363 2.614 33.1543 2.926 33.1103 3.342H32.3303C32.3663 2.954 32.4903 2.62 32.7023 2.34C32.9183 2.06 33.2103 1.846 33.5783 1.698C33.9503 1.546 34.3943 1.47 34.9103 1.47C35.3743 1.47 35.7883 1.562 36.1523 1.746C36.5163 1.926 36.8023 2.176 37.0103 2.496C37.2183 2.812 37.3223 3.174 37.3223 3.582C37.3223 3.962 37.2503 4.292 37.1063 4.572C36.9623 4.852 36.7643 5.092 36.5123 5.292C36.2643 5.492 35.9803 5.658 35.6603 5.79L34.1783 6.396C33.7583 6.56 33.4383 6.762 33.2183 7.002C33.0023 7.238 32.8943 7.546 32.8943 7.926V8.352H37.2383V9H32.1982ZM42.9248 1.59V8.394H46.3628V9H42.2288V1.59H42.9248ZM51.59 3.3H52.286V9H51.59V3.3ZM47.486 3.3H48.182V6.876C48.182 7.404 48.31 7.808 48.566 8.088C48.826 8.364 49.2 8.502 49.688 8.502C50.088 8.502 50.43 8.394 50.714 8.178C50.998 7.962 51.214 7.672 51.362 7.308C51.514 6.944 51.59 6.542 51.59 6.102H51.92C51.92 6.71 51.826 7.24 51.638 7.692C51.45 8.144 51.184 8.494 50.84 8.742C50.496 8.986 50.088 9.108 49.616 9.108C49.176 9.108 48.796 9.026 48.476 8.862C48.16 8.698 47.916 8.454 47.744 8.13C47.572 7.802 47.486 7.396 47.486 6.912V3.3ZM55.1927 1.806C55.0447 1.806 54.9247 1.76 54.8327 1.668C54.7407 1.576 54.6947 1.46 54.6947 1.32C54.6947 1.184 54.7407 1.076 54.8327 0.995999C54.9247 0.912 55.0447 0.87 55.1927 0.87C55.3487 0.87 55.4707 0.912 55.5587 0.995999C55.6467 1.076 55.6907 1.184 55.6907 1.32C55.6907 1.46 55.6467 1.576 55.5587 1.668C55.4707 1.76 55.3487 1.806 55.1927 1.806ZM54.8447 9V3.3H55.5407V9H54.8447ZM60.2231 9.132C59.6711 9.132 59.2151 9.052 58.8551 8.892C58.4991 8.732 58.2311 8.516 58.0511 8.244C57.8711 7.972 57.7731 7.668 57.7571 7.332H58.4531C58.4771 7.736 58.6391 8.042 58.9391 8.25C59.2431 8.454 59.6571 8.556 60.1811 8.556C60.4531 8.556 60.7051 8.512 60.9371 8.424C61.1691 8.332 61.3551 8.208 61.4951 8.052C61.6391 7.892 61.7111 7.712 61.7111 7.512C61.7111 7.256 61.6171 7.056 61.4291 6.912C61.2411 6.768 60.9431 6.644 60.5351 6.54L59.4971 6.228C58.9971 6.084 58.6151 5.88 58.3511 5.616C58.0871 5.348 57.9551 5.028 57.9551 4.656C57.9551 4.208 58.1491 3.85 58.5371 3.582C58.9251 3.31 59.4311 3.174 60.0551 3.174C60.7351 3.174 61.2651 3.308 61.6451 3.576C62.0251 3.844 62.2251 4.178 62.2451 4.578H61.5251C61.4811 4.294 61.3351 4.084 61.0871 3.948C60.8391 3.808 60.4951 3.738 60.0551 3.738C59.6191 3.738 59.2811 3.838 59.0411 4.038C58.8011 4.238 58.6811 4.456 58.6811 4.692C58.6811 5.148 59.0731 5.482 59.8571 5.694L60.8771 6.012C61.3891 6.156 61.7791 6.348 62.0471 6.588C62.3191 6.828 62.4551 7.136 62.4551 7.512C62.4551 7.788 62.3651 8.05 62.1851 8.298C62.0091 8.546 61.7551 8.748 61.4231 8.904C61.0911 9.056 60.6911 9.132 60.2231 9.132ZM66.336 9L68.898 1.59H69.72L72.246 9H71.514L70.83 6.942H67.776L67.062 9H66.336ZM67.956 6.378H70.638L69.294 2.454L67.956 6.378ZM73.8459 9V0.84H74.5419V9H73.8459ZM79.5109 9.132C79.1189 9.132 78.7649 9.034 78.4489 8.838C78.1369 8.638 77.8889 8.35 77.7049 7.974C77.5209 7.598 77.4289 7.146 77.4289 6.618H77.7529C77.7529 7.03 77.8349 7.378 77.9989 7.662C78.1669 7.942 78.3809 8.154 78.6409 8.298C78.9009 8.442 79.1769 8.514 79.4689 8.514C79.7929 8.514 80.0929 8.42 80.3689 8.232C80.6449 8.044 80.8669 7.772 81.0349 7.416C81.2029 7.06 81.2869 6.632 81.2869 6.132C81.2869 5.636 81.2029 5.214 81.0349 4.866C80.8669 4.518 80.6449 4.25 80.3689 4.062C80.0929 3.874 79.7889 3.78 79.4569 3.78C79.1649 3.78 78.8889 3.852 78.6289 3.996C78.3689 4.14 78.1569 4.354 77.9929 4.638C77.8329 4.918 77.7529 5.268 77.7529 5.688H77.4289C77.4289 5.164 77.5189 4.716 77.6989 4.344C77.8829 3.968 78.1329 3.68 78.4489 3.48C78.7689 3.276 79.1349 3.174 79.5469 3.174C79.9909 3.174 80.3989 3.294 80.7709 3.534C81.1469 3.77 81.4469 4.11 81.6709 4.554C81.8989 4.994 82.0129 5.52 82.0129 6.132C82.0129 6.744 81.8989 7.274 81.6709 7.722C81.4429 8.17 81.1389 8.518 80.7589 8.766C80.3789 9.01 79.9629 9.132 79.5109 9.132ZM77.0569 9V0.84H77.7529V7.704L77.5849 9H77.0569ZM85.9433 9.132C85.4473 9.132 85.0093 9.006 84.6293 8.754C84.2533 8.498 83.9573 8.148 83.7413 7.704C83.5253 7.256 83.4173 6.746 83.4173 6.174C83.4173 5.55 83.5233 5.014 83.7353 4.566C83.9513 4.118 84.2473 3.774 84.6233 3.534C85.0033 3.294 85.4433 3.174 85.9433 3.174C86.3633 3.174 86.7193 3.26 87.0113 3.432C87.3073 3.6 87.5453 3.83 87.7253 4.122C87.9053 4.414 88.0313 4.744 88.1033 5.112C88.1793 5.48 88.2093 5.86 88.1933 6.252H83.9873V5.772H87.7673L87.4913 5.952C87.5033 5.692 87.4873 5.434 87.4433 5.178C87.4033 4.918 87.3253 4.68 87.2093 4.464C87.0973 4.248 86.9393 4.074 86.7353 3.942C86.5313 3.81 86.2693 3.744 85.9492 3.744C85.5413 3.744 85.2013 3.85 84.9293 4.062C84.6573 4.27 84.4533 4.542 84.3173 4.878C84.1853 5.21 84.1193 5.566 84.1193 5.946V6.24C84.1193 6.676 84.1853 7.068 84.3173 7.416C84.4533 7.764 84.6553 8.04 84.9233 8.244C85.1953 8.448 85.5353 8.55 85.9433 8.55C86.3633 8.55 86.7053 8.448 86.9693 8.244C87.2373 8.036 87.3973 7.732 87.4493 7.332H88.1933C88.1333 7.712 87.9993 8.036 87.7913 8.304C87.5873 8.572 87.3273 8.778 87.0113 8.922C86.6953 9.062 86.3393 9.132 85.9433 9.132ZM90.0998 9V3.3H90.7958V9H90.0998ZM90.5378 6.39C90.5378 5.678 90.5998 5.086 90.7238 4.614C90.8478 4.142 91.0398 3.788 91.2998 3.552C91.5598 3.316 91.8918 3.198 92.2958 3.198C92.4358 3.198 92.5638 3.208 92.6798 3.228C92.7998 3.248 92.9198 3.28 93.0398 3.324L92.9618 4.002C92.8458 3.958 92.7178 3.922 92.5778 3.894C92.4378 3.862 92.3158 3.846 92.2118 3.846C91.8558 3.846 91.5738 3.954 91.3658 4.17C91.1618 4.386 91.0158 4.686 90.9278 5.07C90.8398 5.45 90.7958 5.89 90.7958 6.39H90.5378ZM95.9103 9.132C95.6143 9.132 95.3503 9.074 95.1183 8.958C94.8903 8.842 94.7103 8.67 94.5783 8.442C94.4503 8.214 94.3863 7.932 94.3863 7.596V1.686H95.0643V7.584C95.0643 8.232 95.3643 8.556 95.9643 8.556C96.1403 8.556 96.3083 8.536 96.4683 8.496C96.6283 8.456 96.8083 8.4 97.0083 8.328L97.1043 8.838C96.9083 8.926 96.7123 8.996 96.5163 9.048C96.3203 9.104 96.1183 9.132 95.9103 9.132ZM93.4083 3.81V3.306H96.9903V3.81H93.4083ZM100.611 9.132C100.103 9.132 99.6548 9.018 99.2668 8.79C98.8788 8.562 98.5728 8.226 98.3488 7.782C98.1288 7.338 98.0188 6.794 98.0188 6.15C98.0188 5.506 98.1288 4.964 98.3488 4.524C98.5728 4.08 98.8788 3.744 99.2668 3.516C99.6548 3.288 100.103 3.174 100.611 3.174C101.119 3.174 101.567 3.288 101.955 3.516C102.343 3.744 102.647 4.08 102.867 4.524C103.087 4.964 103.197 5.506 103.197 6.15C103.197 6.794 103.087 7.338 102.867 7.782C102.647 8.226 102.343 8.562 101.955 8.79C101.567 9.018 101.119 9.132 100.611 9.132ZM100.599 8.526C101.019 8.526 101.369 8.428 101.649 8.232C101.929 8.032 102.137 7.754 102.273 7.398C102.413 7.042 102.483 6.626 102.483 6.15C102.483 5.434 102.329 4.858 102.021 4.422C101.717 3.986 101.251 3.768 100.623 3.768C100.203 3.768 99.8528 3.868 99.5728 4.068C99.2968 4.264 99.0888 4.542 98.9488 4.902C98.8128 5.258 98.7448 5.674 98.7448 6.15C98.7448 6.862 98.8968 7.436 99.2008 7.872C99.5088 8.308 99.9748 8.526 100.599 8.526ZM104.212 8.574C104.212 8.43 104.264 8.302 104.368 8.19C104.476 8.078 104.608 8.022 104.764 8.022C104.924 8.022 105.06 8.078 105.172 8.19C105.284 8.302 105.34 8.43 105.34 8.574C105.34 8.722 105.284 8.848 105.172 8.952C105.06 9.056 104.924 9.108 104.764 9.108C104.608 9.108 104.476 9.056 104.368 8.952C104.264 8.848 104.212 8.722 104.212 8.574Z" fill="#E8EAED"/>
</svg>
