<svg width="182" height="14" viewBox="0 0 182 14" fill="none" xmlns="http://www.w3.org/2000/svg">
<path d="M0.395445 10V0.451999H1.48745V10H0.395445ZM8.86927 3.294H9.96127V10H8.86927V3.294ZM4.12327 3.294H5.21527V7.466C5.21527 8.026 5.35061 8.45067 5.62127 8.74C5.89661 9.02933 6.28861 9.174 6.79727 9.174C7.21727 9.174 7.58127 9.062 7.88927 8.838C8.20194 8.614 8.44227 8.306 8.61027 7.914C8.78294 7.51733 8.86927 7.06467 8.86927 6.556H9.27527C9.27527 7.30733 9.16561 7.949 8.94627 8.481C8.73161 9.013 8.42594 9.42133 8.02927 9.706C7.63727 9.986 7.17527 10.126 6.64327 10.126C6.13927 10.126 5.69827 10.0327 5.32027 9.846C4.94227 9.65933 4.64827 9.377 4.43827 8.999C4.22827 8.61633 4.12327 8.13333 4.12327 7.55V3.294ZM13.4118 1.726C13.1878 1.726 13.0105 1.663 12.8798 1.537C12.7492 1.40633 12.6838 1.236 12.6838 1.026C12.6838 0.820666 12.7492 0.657333 12.8798 0.535999C13.0105 0.414666 13.1878 0.354 13.4118 0.354C13.6358 0.354 13.8132 0.414666 13.9438 0.535999C14.0745 0.657333 14.1398 0.820666 14.1398 1.026C14.1398 1.236 14.0745 1.40633 13.9438 1.537C13.8132 1.663 13.6358 1.726 13.4118 1.726ZM12.8658 10V3.294H13.9578V10H12.8658ZM19.3738 10.168C18.7251 10.168 18.1838 10.077 17.7498 9.895C17.3158 9.70833 16.9868 9.454 16.7628 9.132C16.5388 8.80533 16.4198 8.432 16.4058 8.012H17.4558C17.4791 8.43667 17.6494 8.75633 17.9668 8.971C18.2888 9.181 18.7251 9.286 19.2758 9.286C19.5651 9.286 19.8311 9.23933 20.0738 9.146C20.3164 9.05267 20.5101 8.92433 20.6548 8.761C20.7994 8.59767 20.8718 8.41333 20.8718 8.208C20.8718 7.94667 20.7761 7.74133 20.5848 7.592C20.3934 7.44267 20.0878 7.312 19.6678 7.2L18.3658 6.78C17.8011 6.60267 17.3671 6.36 17.0638 6.052C16.7651 5.73933 16.6158 5.366 16.6158 4.932C16.6158 4.39067 16.8538 3.95667 17.3298 3.63C17.8058 3.30333 18.4311 3.14 19.2058 3.14C20.0271 3.14 20.6641 3.308 21.1168 3.644C21.5694 3.98 21.8051 4.4 21.8238 4.904H20.7458C20.7038 4.61 20.5544 4.38833 20.2978 4.239C20.0411 4.085 19.6771 4.008 19.2058 4.008C18.7531 4.008 18.3984 4.11067 18.1418 4.316C17.8898 4.51667 17.7638 4.74067 17.7638 4.988C17.7638 5.45 18.1604 5.79067 18.9538 6.01L20.2838 6.458C20.8578 6.63067 21.2964 6.857 21.5998 7.137C21.9078 7.417 22.0618 7.774 22.0618 8.208C22.0618 8.544 21.9521 8.86133 21.7328 9.16C21.5134 9.45867 21.2031 9.70133 20.8018 9.888C20.4004 10.0747 19.9244 10.168 19.3738 10.168ZM23.3272 9.349C23.3272 9.12967 23.4042 8.94067 23.5582 8.782C23.7122 8.62333 23.9059 8.544 24.1392 8.544C24.3726 8.544 24.5709 8.62333 24.7342 8.782C24.8976 8.94067 24.9792 9.12967 24.9792 9.349C24.9792 9.56833 24.8976 9.75267 24.7342 9.902C24.5709 10.0513 24.3726 10.126 24.1392 10.126C23.9059 10.126 23.7122 10.0513 23.5582 9.902C23.4042 9.748 23.3272 9.56367 23.3272 9.349ZM30.9672 10L30.8272 8.53V5.66C30.8272 5.058 30.6988 4.62633 30.4422 4.365C30.1855 4.099 29.8005 3.966 29.2872 3.966C28.9978 3.966 28.7342 4.008 28.4962 4.092C28.2628 4.176 28.0762 4.30667 27.9362 4.484C27.8008 4.65667 27.7332 4.88067 27.7332 5.156H26.5152C26.5152 4.67067 26.6342 4.281 26.8722 3.987C27.1102 3.68833 27.4368 3.47367 27.8522 3.343C28.2722 3.20767 28.7505 3.14 29.2872 3.14C29.8005 3.14 30.2555 3.22633 30.6522 3.399C31.0488 3.57167 31.3592 3.847 31.5832 4.225C31.8072 4.59833 31.9192 5.086 31.9192 5.688V10H30.9672ZM28.6852 10.168C28.1345 10.168 27.6795 10.07 27.3202 9.874C26.9608 9.678 26.6925 9.42367 26.5152 9.111C26.3378 8.79833 26.2492 8.46933 26.2492 8.124C26.2492 7.67133 26.3612 7.30267 26.5852 7.018C26.8138 6.73333 27.1242 6.52567 27.5162 6.395C27.9082 6.25967 28.3492 6.192 28.8392 6.192C29.1892 6.192 29.5392 6.227 29.8892 6.297C30.2438 6.367 30.5892 6.46267 30.9252 6.584V7.27C30.6452 7.158 30.3278 7.06933 29.9732 7.004C29.6232 6.93867 29.3012 6.906 29.0072 6.906C28.5592 6.906 28.1812 6.99933 27.8732 7.186C27.5652 7.368 27.4112 7.68067 27.4112 8.124C27.4112 8.45067 27.5278 8.73067 27.7612 8.964C27.9992 9.19733 28.3772 9.314 28.8952 9.314C29.2592 9.314 29.5858 9.23 29.8752 9.062C30.1692 8.88933 30.4002 8.67467 30.5682 8.418C30.7408 8.16133 30.8272 7.90467 30.8272 7.648H31.0932C31.0932 8.096 30.9952 8.51133 30.7992 8.894C30.6078 9.27667 30.3325 9.58467 29.9732 9.818C29.6138 10.0513 29.1845 10.168 28.6852 10.168ZM34.5341 10V0.451999H35.6261V10H34.5341ZM41.5239 10.168C41.0759 10.168 40.6699 10.0513 40.3059 9.818C39.9466 9.58467 39.6596 9.244 39.4449 8.796C39.2349 8.34333 39.1299 7.79267 39.1299 7.144H39.5499C39.5499 7.578 39.6386 7.949 39.8159 8.257C39.9979 8.56033 40.2313 8.79133 40.5159 8.95C40.8006 9.10867 41.0993 9.188 41.4119 9.188C41.7713 9.188 42.1003 9.08533 42.3989 8.88C42.6976 8.67467 42.9356 8.38067 43.1129 7.998C43.2949 7.61533 43.3859 7.158 43.3859 6.626C43.3859 6.10333 43.2973 5.65533 43.1199 5.282C42.9426 4.904 42.7023 4.61467 42.3989 4.414C42.1003 4.20867 41.7666 4.106 41.3979 4.106C41.0806 4.106 40.7796 4.18533 40.4949 4.344C40.2149 4.498 39.9863 4.72667 39.8089 5.03C39.6363 5.33333 39.5499 5.70667 39.5499 6.15H39.1299C39.1299 5.51533 39.2326 4.974 39.4379 4.526C39.6479 4.078 39.9373 3.735 40.3059 3.497C40.6746 3.259 41.1039 3.14 41.5939 3.14C42.1213 3.14 42.6043 3.28233 43.0429 3.567C43.4863 3.847 43.8409 4.24833 44.1069 4.771C44.3729 5.29367 44.5059 5.912 44.5059 6.626C44.5059 7.34467 44.3706 7.97 44.0999 8.502C43.8293 9.02933 43.4676 9.44 43.0149 9.734C42.5623 10.0233 42.0653 10.168 41.5239 10.168ZM38.4579 10V0.451999H39.5499V8.432L39.2279 10H38.4579ZM49.0808 10.168C48.5021 10.168 47.9841 10.021 47.5268 9.727C47.0741 9.42833 46.7148 9.01533 46.4488 8.488C46.1874 7.96067 46.0568 7.354 46.0568 6.668C46.0568 5.93533 46.1874 5.30533 46.4488 4.778C46.7101 4.25067 47.0671 3.847 47.5198 3.567C47.9771 3.28233 48.4974 3.14 49.0808 3.14C49.5894 3.14 50.0234 3.24267 50.3828 3.448C50.7421 3.65333 51.0314 3.931 51.2508 4.281C51.4701 4.631 51.6218 5.02767 51.7058 5.471C51.7944 5.90967 51.8201 6.36467 51.7828 6.836H46.9388V6.164H51.0618L50.7398 6.374C50.7538 6.09867 50.7374 5.82333 50.6908 5.548C50.6488 5.27267 50.5671 5.02067 50.4458 4.792C50.3244 4.55867 50.1541 4.372 49.9348 4.232C49.7154 4.092 49.4354 4.022 49.0948 4.022C48.6654 4.022 48.3061 4.13167 48.0168 4.351C47.7274 4.57033 47.5104 4.85967 47.3658 5.219C47.2211 5.57367 47.1488 5.95867 47.1488 6.374V6.822C47.1488 7.28867 47.2188 7.70633 47.3588 8.075C47.5034 8.44367 47.7181 8.73533 48.0028 8.95C48.2874 9.16467 48.6468 9.272 49.0808 9.272C49.5148 9.272 49.8718 9.167 50.1518 8.957C50.4318 8.747 50.6021 8.43667 50.6628 8.026H51.7968C51.7268 8.46933 51.5681 8.852 51.3208 9.174C51.0734 9.49133 50.7584 9.73633 50.3758 9.909C49.9931 10.0817 49.5614 10.168 49.0808 10.168ZM53.9482 10V3.294H55.0402V10H53.9482ZM54.7042 6.976C54.7042 6.12667 54.7858 5.422 54.9492 4.862C55.1125 4.29733 55.3505 3.87733 55.6632 3.602C55.9805 3.322 56.3655 3.182 56.8182 3.182C56.9675 3.182 57.1028 3.19367 57.2242 3.217C57.3502 3.23567 57.4762 3.266 57.6022 3.308L57.5322 4.386C57.4015 4.344 57.2592 4.309 57.1052 4.281C56.9512 4.24833 56.8135 4.232 56.6922 4.232C56.2955 4.232 55.9758 4.34633 55.7332 4.575C55.4905 4.799 55.3132 5.11633 55.2012 5.527C55.0938 5.93767 55.0402 6.42067 55.0402 6.976H54.7042ZM61.0648 10.168C60.7008 10.168 60.3741 10.098 60.0848 9.958C59.7954 9.818 59.5668 9.608 59.3988 9.328C59.2308 9.048 59.1468 8.698 59.1468 8.278V1.446H60.2248V8.25C60.2248 8.94067 60.5468 9.286 61.1908 9.286C61.3821 9.286 61.5664 9.265 61.7438 9.223C61.9258 9.181 62.1288 9.118 62.3528 9.034L62.5068 9.818C62.2688 9.92067 62.0308 10.0047 61.7928 10.07C61.5594 10.1353 61.3168 10.168 61.0648 10.168ZM58.0688 4.064V3.308H62.3388V4.064H58.0688ZM66.6924 10.168C66.0904 10.168 65.5538 10.035 65.0824 9.769C64.6158 9.503 64.2471 9.10867 63.9764 8.586C63.7058 8.06333 63.5704 7.41933 63.5704 6.654C63.5704 5.884 63.7058 5.24 63.9764 4.722C64.2471 4.19933 64.6158 3.805 65.0824 3.539C65.5538 3.273 66.0904 3.14 66.6924 3.14C67.2898 3.14 67.8218 3.273 68.2884 3.539C68.7598 3.805 69.1284 4.19933 69.3944 4.722C69.6651 5.24 69.8004 5.884 69.8004 6.654C69.8004 7.41933 69.6651 8.06333 69.3944 8.586C69.1284 9.10867 68.7598 9.503 68.2884 9.769C67.8218 10.035 67.2898 10.168 66.6924 10.168ZM66.6644 9.216C67.0984 9.216 67.4671 9.11333 67.7704 8.908C68.0738 8.698 68.3024 8.40167 68.4564 8.019C68.6151 7.63633 68.6944 7.18133 68.6944 6.654C68.6944 5.856 68.5288 5.22833 68.1974 4.771C67.8661 4.309 67.3738 4.078 66.7204 4.078C66.2818 4.078 65.9108 4.183 65.6074 4.393C65.3088 4.59833 65.0801 4.89467 64.9214 5.282C64.7674 5.66467 64.6904 6.122 64.6904 6.654C64.6904 7.44267 64.8561 8.068 65.1874 8.53C65.5234 8.98733 66.0158 9.216 66.6644 9.216ZM74.6707 10.168C74.232 10.168 73.8074 10.1073 73.3967 9.986C72.9907 9.86 72.6244 9.678 72.2977 9.44C71.9757 9.19733 71.7214 8.89867 71.5347 8.544C71.348 8.18933 71.2547 7.77867 71.2547 7.312H72.3747C72.384 7.71333 72.4914 8.05167 72.6967 8.327C72.902 8.60233 73.175 8.81 73.5157 8.95C73.861 9.09 74.246 9.16 74.6707 9.16C75.324 9.16 75.8304 9.00133 76.1897 8.684C76.549 8.36667 76.7287 7.97 76.7287 7.494C76.7287 7.19067 76.654 6.92233 76.5047 6.689C76.3554 6.45567 76.1174 6.27367 75.7907 6.143C75.4687 6.00767 75.044 5.94 74.5167 5.94H73.5227V5.072H74.1947C74.876 5.072 75.4127 4.93667 75.8047 4.666C76.1967 4.39533 76.3927 4.022 76.3927 3.546C76.3927 3.126 76.234 2.77133 75.9167 2.482C75.5994 2.19267 75.1467 2.048 74.5587 2.048C74.106 2.048 73.7024 2.14133 73.3477 2.328C72.993 2.51 72.7527 2.846 72.6267 3.336H71.5067C71.5814 2.79 71.7587 2.349 72.0387 2.013C72.3187 1.677 72.6734 1.43433 73.1027 1.285C73.532 1.131 74.008 1.054 74.5307 1.054C75.114 1.054 75.6344 1.15667 76.0917 1.362C76.549 1.56733 76.9084 1.84967 77.1697 2.209C77.4357 2.56833 77.5687 2.98133 77.5687 3.448C77.5687 3.91 77.4357 4.30667 77.1697 4.638C76.9084 4.96467 76.528 5.21667 76.0287 5.394C76.584 5.55267 77.0367 5.814 77.3867 6.178C77.7414 6.542 77.9187 7.00867 77.9187 7.578C77.9187 8.082 77.7857 8.53 77.5197 8.922C77.2584 9.30933 76.885 9.615 76.3997 9.839C75.9144 10.0583 75.338 10.168 74.6707 10.168ZM82.7322 10.168C82.1768 10.168 81.6705 10.0677 81.2132 9.867C80.7558 9.66633 80.3895 9.37233 80.1142 8.985C79.8388 8.593 79.6988 8.11467 79.6942 7.55H80.7862C80.7862 8.082 80.9728 8.48333 81.3462 8.754C81.7242 9.02467 82.1862 9.16 82.7322 9.16C83.3622 9.16 83.8568 8.96867 84.2162 8.586C84.5802 8.19867 84.7622 7.72267 84.7622 7.158C84.7622 6.02867 84.0342 5.464 82.5782 5.464H80.2262L80.6042 1.208H85.4762V2.202H81.4862L81.7102 1.824L81.4162 4.89L81.2762 4.764C81.5002 4.71267 81.7545 4.67767 82.0392 4.659C82.3238 4.63567 82.5782 4.624 82.8022 4.624C83.7542 4.624 84.5078 4.83633 85.0632 5.261C85.6185 5.68567 85.8962 6.318 85.8962 7.158C85.8962 7.72733 85.7678 8.24067 85.5112 8.698C85.2545 9.15067 84.8882 9.51 84.4122 9.776C83.9408 10.0373 83.3808 10.168 82.7322 10.168ZM90.6345 10.168C90.0792 10.168 89.5729 10.0677 89.1155 9.867C88.6582 9.66633 88.2919 9.37233 88.0165 8.985C87.7412 8.593 87.6012 8.11467 87.5965 7.55H88.6885C88.6885 8.082 88.8752 8.48333 89.2485 8.754C89.6265 9.02467 90.0885 9.16 90.6345 9.16C91.2645 9.16 91.7592 8.96867 92.1185 8.586C92.4825 8.19867 92.6645 7.72267 92.6645 7.158C92.6645 6.02867 91.9365 5.464 90.4805 5.464H88.1285L88.5065 1.208H93.3785V2.202H89.3885L89.6125 1.824L89.3185 4.89L89.1785 4.764C89.4025 4.71267 89.6569 4.67767 89.9415 4.659C90.2262 4.63567 90.4805 4.624 90.7045 4.624C91.6565 4.624 92.4102 4.83633 92.9655 5.261C93.5209 5.68567 93.7985 6.318 93.7985 7.158C93.7985 7.72733 93.6702 8.24067 93.4135 8.698C93.1569 9.15067 92.7905 9.51 92.3145 9.776C91.8432 10.0373 91.2832 10.168 90.6345 10.168ZM98.8029 10.168C98.0982 10.168 97.4822 9.97433 96.9549 9.587C96.4322 9.19967 96.0262 8.67467 95.7369 8.012C95.4475 7.34467 95.3029 6.59333 95.3029 5.758C95.3029 4.77333 95.4499 3.931 95.7439 3.231C96.0379 2.52633 96.4579 1.98733 97.0039 1.614C97.5499 1.24067 98.2009 1.054 98.9569 1.054C99.4795 1.054 99.9392 1.15433 100.336 1.355C100.737 1.551 101.057 1.82633 101.295 2.181C101.538 2.53567 101.682 2.94867 101.729 3.42H100.539C100.469 3 100.31 2.66633 100.063 2.419C99.8155 2.17167 99.4562 2.048 98.9849 2.048C98.1822 2.048 97.5522 2.39567 97.0949 3.091C96.6375 3.78167 96.4089 4.72667 96.4089 5.926C96.4089 6.09867 96.4135 6.29933 96.4229 6.528C96.4322 6.752 96.4509 6.962 96.4789 7.158C96.5209 6.53733 96.6632 6.04967 96.9059 5.695C97.1532 5.33567 97.4612 5.08133 97.8299 4.932C98.1985 4.78267 98.5882 4.708 98.9989 4.708C99.5309 4.708 100.007 4.82467 100.427 5.058C100.852 5.29133 101.185 5.61567 101.428 6.031C101.675 6.44167 101.799 6.91533 101.799 7.452C101.799 7.99333 101.673 8.46933 101.421 8.88C101.169 9.286 100.817 9.60333 100.364 9.832C99.9159 10.056 99.3955 10.168 98.8029 10.168ZM98.8029 9.16C99.3349 9.16 99.7759 9.00367 100.126 8.691C100.476 8.37833 100.651 7.956 100.651 7.424C100.651 6.878 100.476 6.451 100.126 6.143C99.7759 5.83033 99.3349 5.674 98.8029 5.674C98.4529 5.674 98.1402 5.751 97.8649 5.905C97.5895 6.05433 97.3702 6.262 97.2069 6.528C97.0482 6.78933 96.9689 7.088 96.9689 7.424C96.9689 7.956 97.1439 8.37833 97.4939 8.691C97.8439 9.00367 98.2802 9.16 98.8029 9.16ZM110.217 12.52C109.209 12.52 108.294 12.38 107.473 12.1C106.656 11.82 105.954 11.4233 105.366 10.91C104.778 10.4013 104.325 9.79933 104.008 9.104C103.695 8.40867 103.539 7.64567 103.539 6.815C103.539 5.99367 103.69 5.233 103.994 4.533C104.302 3.833 104.731 3.224 105.282 2.706C105.832 2.18333 106.481 1.77733 107.228 1.488C107.979 1.19867 108.798 1.054 109.685 1.054C110.511 1.054 111.255 1.17767 111.918 1.425C112.58 1.67233 113.147 2.01767 113.619 2.461C114.095 2.90433 114.459 3.42 114.711 4.008C114.963 4.59133 115.089 5.219 115.089 5.891C115.089 6.45567 115.005 6.96667 114.837 7.424C114.669 7.87667 114.44 8.26633 114.151 8.593C113.866 8.91967 113.544 9.17167 113.185 9.349C112.825 9.52167 112.454 9.608 112.072 9.608C111.689 9.608 111.374 9.52167 111.127 9.349C110.879 9.17167 110.735 8.92667 110.693 8.614L110.651 8.404C110.492 8.73067 110.273 9.013 109.993 9.251C109.713 9.489 109.344 9.608 108.887 9.608C108.49 9.608 108.119 9.50767 107.774 9.307C107.433 9.10633 107.158 8.82167 106.948 8.453C106.738 8.08433 106.633 7.64567 106.633 7.137C106.633 6.689 106.717 6.27133 106.885 5.884C107.053 5.492 107.281 5.149 107.571 4.855C107.865 4.55633 108.196 4.32533 108.565 4.162C108.938 3.994 109.33 3.91 109.741 3.91C110.301 3.91 110.744 4.078 111.071 4.414C111.397 4.75 111.561 5.25867 111.561 5.94V8.068C111.561 8.32 111.603 8.50433 111.687 8.621C111.775 8.73767 111.913 8.796 112.1 8.796C112.366 8.796 112.643 8.68167 112.933 8.453C113.222 8.22433 113.467 7.893 113.668 7.459C113.868 7.025 113.969 6.50233 113.969 5.891C113.969 5.13967 113.798 4.47467 113.458 3.896C113.117 3.31267 112.629 2.85533 111.995 2.524C111.365 2.188 110.611 2.02 109.734 2.02C108.968 2.02 108.273 2.14833 107.648 2.405C107.027 2.66167 106.493 3.01633 106.045 3.469C105.601 3.92167 105.258 4.44667 105.016 5.044C104.778 5.63667 104.659 6.27367 104.659 6.955C104.659 7.879 104.88 8.69333 105.324 9.398C105.772 10.098 106.411 10.6463 107.242 11.043C108.072 11.4397 109.064 11.638 110.217 11.638V12.52ZM109.041 8.726C109.409 8.726 109.715 8.614 109.958 8.39C110.205 8.16133 110.431 7.844 110.637 7.438V5.94C110.637 5.55733 110.569 5.26567 110.434 5.065C110.298 4.86433 110.072 4.764 109.755 4.764C109.442 4.764 109.125 4.862 108.803 5.058C108.481 5.24933 108.21 5.52467 107.991 5.884C107.776 6.23867 107.669 6.65867 107.669 7.144C107.669 7.65733 107.797 8.04933 108.054 8.32C108.315 8.59067 108.644 8.726 109.041 8.726ZM119.519 13.444C118.833 13.444 118.238 13.346 117.734 13.15C117.23 12.9587 116.838 12.6997 116.558 12.373C116.283 12.051 116.145 11.694 116.145 11.302C116.145 10.784 116.334 10.3873 116.712 10.112C117.095 9.84133 117.587 9.706 118.189 9.706L118.791 10.084C118.287 10.084 117.898 10.189 117.622 10.399C117.347 10.609 117.209 10.896 117.209 11.26C117.209 11.624 117.405 11.932 117.797 12.184C118.189 12.436 118.763 12.562 119.519 12.562C120.079 12.562 120.569 12.4803 120.989 12.317C121.414 12.1583 121.743 11.9483 121.976 11.687C122.214 11.4303 122.333 11.1527 122.333 10.854C122.333 10.644 122.256 10.462 122.102 10.308C121.948 10.1587 121.713 10.084 121.395 10.084H118.791C118.339 10.084 117.947 10.0163 117.615 9.881C117.289 9.741 117.037 9.559 116.859 9.335C116.682 9.111 116.593 8.866 116.593 8.6C116.593 8.32 116.673 8.082 116.831 7.886C116.99 7.69 117.195 7.54067 117.447 7.438C117.704 7.33533 117.979 7.284 118.273 7.284L118.483 7.69C118.343 7.69 118.201 7.72267 118.056 7.788C117.916 7.84867 117.797 7.942 117.699 8.068C117.606 8.18933 117.559 8.34333 117.559 8.53C117.559 8.74467 117.648 8.92433 117.825 9.069C118.003 9.21367 118.325 9.286 118.791 9.286H121.395C122.025 9.286 122.52 9.419 122.879 9.685C123.243 9.951 123.425 10.322 123.425 10.798C123.425 11.2367 123.269 11.6567 122.956 12.058C122.644 12.464 122.196 12.7953 121.612 13.052C121.029 13.3133 120.331 13.444 119.519 13.444ZM119.715 8.04C119.202 8.04 118.738 7.93733 118.322 7.732C117.912 7.52667 117.585 7.23967 117.342 6.871C117.104 6.50233 116.985 6.07533 116.985 5.59C116.985 5.1 117.104 4.67067 117.342 4.302C117.585 3.93333 117.912 3.64867 118.322 3.448C118.738 3.24267 119.202 3.14 119.715 3.14C120.215 3.14 120.667 3.24267 121.073 3.448C121.484 3.64867 121.811 3.93333 122.053 4.302C122.296 4.67067 122.417 5.1 122.417 5.59C122.417 6.07533 122.296 6.50233 122.053 6.871C121.811 7.23967 121.484 7.52667 121.073 7.732C120.667 7.93733 120.215 8.04 119.715 8.04ZM119.715 7.256C120.229 7.256 120.628 7.09733 120.912 6.78C121.197 6.46267 121.339 6.066 121.339 5.59C121.339 5.1 121.197 4.70333 120.912 4.4C120.628 4.092 120.229 3.938 119.715 3.938C119.207 3.938 118.805 4.092 118.511 4.4C118.222 4.70333 118.077 5.1 118.077 5.59C118.077 6.066 118.222 6.46267 118.511 6.78C118.805 7.09733 119.207 7.256 119.715 7.256ZM121.913 4.204L121.395 3.994C121.395 3.602 121.472 3.259 121.626 2.965C121.78 2.66633 122 2.43533 122.284 2.272C122.569 2.104 122.907 2.02 123.299 2.02L123.215 3.098C122.795 3.098 122.473 3.189 122.249 3.371C122.025 3.54833 121.913 3.826 121.913 4.204ZM134.464 10V6.066C134.464 5.42667 134.31 4.94133 134.002 4.61C133.698 4.274 133.288 4.106 132.77 4.106C132.163 4.106 131.699 4.34167 131.377 4.813C131.055 5.27967 130.894 5.926 130.894 6.752H130.39C130.39 6.15 130.448 5.62267 130.565 5.17C130.686 4.71733 130.861 4.34167 131.09 4.043C131.318 3.73967 131.596 3.51333 131.923 3.364C132.249 3.21467 132.62 3.14 133.036 3.14C133.563 3.14 134.013 3.259 134.387 3.497C134.765 3.73033 135.054 4.06633 135.255 4.505C135.455 4.94367 135.556 5.464 135.556 6.066V10H134.464ZM125.056 10V3.308H125.994L126.12 4.652C126.33 4.16667 126.624 3.79333 127.002 3.532C127.384 3.27067 127.842 3.14 128.374 3.14C128.901 3.14 129.351 3.259 129.725 3.497C130.103 3.73033 130.392 4.06633 130.593 4.505C130.793 4.94367 130.894 5.464 130.894 6.066V10H129.816V6.066C129.816 5.42667 129.662 4.94133 129.354 4.61C129.05 4.274 128.635 4.106 128.108 4.106C127.706 4.106 127.359 4.21567 127.065 4.435C126.771 4.65433 126.544 4.96933 126.386 5.38C126.227 5.786 126.148 6.27133 126.148 6.836V10H125.056ZM142.297 10L142.157 8.53V5.66C142.157 5.058 142.029 4.62633 141.772 4.365C141.516 4.099 141.131 3.966 140.617 3.966C140.328 3.966 140.064 4.008 139.826 4.092C139.593 4.176 139.406 4.30667 139.266 4.484C139.131 4.65667 139.063 4.88067 139.063 5.156H137.845C137.845 4.67067 137.964 4.281 138.202 3.987C138.44 3.68833 138.767 3.47367 139.182 3.343C139.602 3.20767 140.081 3.14 140.617 3.14C141.131 3.14 141.586 3.22633 141.982 3.399C142.379 3.57167 142.689 3.847 142.913 4.225C143.137 4.59833 143.249 5.086 143.249 5.688V10H142.297ZM140.015 10.168C139.465 10.168 139.01 10.07 138.65 9.874C138.291 9.678 138.023 9.42367 137.845 9.111C137.668 8.79833 137.579 8.46933 137.579 8.124C137.579 7.67133 137.691 7.30267 137.915 7.018C138.144 6.73333 138.454 6.52567 138.846 6.395C139.238 6.25967 139.679 6.192 140.169 6.192C140.519 6.192 140.869 6.227 141.219 6.297C141.574 6.367 141.919 6.46267 142.255 6.584V7.27C141.975 7.158 141.658 7.06933 141.303 7.004C140.953 6.93867 140.631 6.906 140.337 6.906C139.889 6.906 139.511 6.99933 139.203 7.186C138.895 7.368 138.741 7.68067 138.741 8.124C138.741 8.45067 138.858 8.73067 139.091 8.964C139.329 9.19733 139.707 9.314 140.225 9.314C140.589 9.314 140.916 9.23 141.205 9.062C141.499 8.88933 141.73 8.67467 141.898 8.418C142.071 8.16133 142.157 7.90467 142.157 7.648H142.423C142.423 8.096 142.325 8.51133 142.129 8.894C141.938 9.27667 141.663 9.58467 141.303 9.818C140.944 10.0513 140.515 10.168 140.015 10.168ZM146.48 1.726C146.256 1.726 146.079 1.663 145.948 1.537C145.818 1.40633 145.752 1.236 145.752 1.026C145.752 0.820666 145.818 0.657333 145.948 0.535999C146.079 0.414666 146.256 0.354 146.48 0.354C146.704 0.354 146.882 0.414666 147.012 0.535999C147.143 0.657333 147.208 0.820666 147.208 1.026C147.208 1.236 147.143 1.40633 147.012 1.537C146.882 1.663 146.704 1.726 146.48 1.726ZM145.934 10V3.294H147.026V10H145.934ZM150.034 10V0.451999H151.126V10H150.034ZM152.964 9.349C152.964 9.12967 153.041 8.94067 153.195 8.782C153.349 8.62333 153.543 8.544 153.776 8.544C154.009 8.544 154.208 8.62333 154.371 8.782C154.534 8.94067 154.616 9.12967 154.616 9.349C154.616 9.56833 154.534 9.75267 154.371 9.902C154.208 10.0513 154.009 10.126 153.776 10.126C153.543 10.126 153.349 10.0513 153.195 9.902C153.041 9.748 152.964 9.56367 152.964 9.349ZM158.812 10.168C158.275 10.168 157.774 10.0233 157.307 9.734C156.845 9.44467 156.472 9.03633 156.187 8.509C155.902 7.98167 155.76 7.35867 155.76 6.64C155.76 5.90267 155.902 5.27267 156.187 4.75C156.472 4.22733 156.845 3.82833 157.307 3.553C157.774 3.27767 158.275 3.14 158.812 3.14C159.19 3.14 159.528 3.19833 159.827 3.315C160.13 3.427 160.394 3.58333 160.618 3.784C160.842 3.98467 161.026 4.21333 161.171 4.47C161.32 4.722 161.43 4.988 161.5 5.268L160.38 5.366C160.263 4.97867 160.067 4.673 159.792 4.449C159.521 4.22033 159.19 4.106 158.798 4.106C158.467 4.106 158.154 4.20167 157.86 4.393C157.571 4.57967 157.335 4.862 157.153 5.24C156.971 5.61333 156.88 6.08 156.88 6.64C156.88 7.158 156.962 7.60833 157.125 7.991C157.293 8.369 157.522 8.663 157.811 8.873C158.1 9.083 158.429 9.188 158.798 9.188C159.316 9.188 159.708 9.062 159.974 8.81C160.245 8.55333 160.38 8.19867 160.38 7.746H161.5C161.5 8.21267 161.39 8.628 161.171 8.992C160.952 9.356 160.639 9.643 160.233 9.853C159.832 10.063 159.358 10.168 158.812 10.168ZM166.101 10.168C165.499 10.168 164.962 10.035 164.491 9.769C164.024 9.503 163.655 9.10867 163.385 8.586C163.114 8.06333 162.979 7.41933 162.979 6.654C162.979 5.884 163.114 5.24 163.385 4.722C163.655 4.19933 164.024 3.805 164.491 3.539C164.962 3.273 165.499 3.14 166.101 3.14C166.698 3.14 167.23 3.273 167.697 3.539C168.168 3.805 168.537 4.19933 168.803 4.722C169.073 5.24 169.209 5.884 169.209 6.654C169.209 7.41933 169.073 8.06333 168.803 8.586C168.537 9.10867 168.168 9.503 167.697 9.769C167.23 10.035 166.698 10.168 166.101 10.168ZM166.073 9.216C166.507 9.216 166.875 9.11333 167.179 8.908C167.482 8.698 167.711 8.40167 167.865 8.019C168.023 7.63633 168.103 7.18133 168.103 6.654C168.103 5.856 167.937 5.22833 167.606 4.771C167.274 4.309 166.782 4.078 166.129 4.078C165.69 4.078 165.319 4.183 165.016 4.393C164.717 4.59833 164.488 4.89467 164.33 5.282C164.176 5.66467 164.099 6.122 164.099 6.654C164.099 7.44267 164.264 8.068 164.596 8.53C164.932 8.98733 165.424 9.216 166.073 9.216ZM180.743 10V6.066C180.743 5.42667 180.589 4.94133 180.281 4.61C179.978 4.274 179.567 4.106 179.049 4.106C178.442 4.106 177.978 4.34167 177.656 4.813C177.334 5.27967 177.173 5.926 177.173 6.752H176.669C176.669 6.15 176.727 5.62267 176.844 5.17C176.965 4.71733 177.14 4.34167 177.369 4.043C177.598 3.73967 177.875 3.51333 178.202 3.364C178.529 3.21467 178.9 3.14 179.315 3.14C179.842 3.14 180.293 3.259 180.666 3.497C181.044 3.73033 181.333 4.06633 181.534 4.505C181.735 4.94367 181.835 5.464 181.835 6.066V10H180.743ZM171.335 10V3.308H172.273L172.399 4.652C172.609 4.16667 172.903 3.79333 173.281 3.532C173.664 3.27067 174.121 3.14 174.653 3.14C175.18 3.14 175.631 3.259 176.004 3.497C176.382 3.73033 176.671 4.06633 176.872 4.505C177.073 4.94367 177.173 5.464 177.173 6.066V10H176.095V6.066C176.095 5.42667 175.941 4.94133 175.633 4.61C175.33 4.274 174.914 4.106 174.387 4.106C173.986 4.106 173.638 4.21567 173.344 4.435C173.05 4.65433 172.824 4.96933 172.665 5.38C172.506 5.786 172.427 6.27133 172.427 6.836V10H171.335Z" fill="#E8EAED"/>
<a href="mailto:luis.alberto3556@gmail.com">
<rect fill="black" fill-opacity="0" x="87.9814" y="14.317" width="184.036" height="16.366"/>
</a>
</svg>
